<svg width="100" height="101" viewBox="0 0 100 101" fill="none" xmlns="http://www.w3.org/2000/svg">
<path d="M95.9464 97.7974H4.05448C3.69608 97.7974 3.35235 97.655 3.09893 97.4016C2.8455 97.1481 2.70313 96.8044 2.70312 96.446V39.6892C2.70312 39.3308 2.8455 38.9871 3.09893 38.7337C3.35235 38.4803 3.69608 38.3379 4.05448 38.3379H95.9464C96.3048 38.3379 96.6485 38.4803 96.9019 38.7337C97.1553 38.9871 97.2977 39.3308 97.2977 39.6892V96.446C97.2977 96.8044 97.1553 97.1481 96.9019 97.4016C96.6485 97.655 96.3048 97.7974 95.9464 97.7974ZM5.40583 95.0947H94.595V41.0406H5.40583V95.0947Z" fill="#D4AF37"/>
<path d="M87.8376 41.0406H12.1619C11.8035 41.0406 11.4598 40.8983 11.2063 40.6448C10.9529 40.3914 10.8105 40.0477 10.8105 39.6893V30.2298C10.8105 29.1546 11.2377 28.1235 11.998 27.3632C12.7582 26.6029 13.7894 26.1758 14.8646 26.1758H85.1349C86.2101 26.1758 87.2412 26.6029 88.0015 27.3632C88.7618 28.1235 89.1889 29.1546 89.1889 30.2298V39.6893C89.1889 40.0477 89.0466 40.3914 88.7931 40.6448C88.5397 40.8983 88.196 41.0406 87.8376 41.0406ZM13.5132 38.3379H86.4862V30.2298C86.4862 29.8714 86.3438 29.5277 86.0904 29.2743C85.837 29.0209 85.4933 28.8785 85.1349 28.8785H14.8646C14.5062 28.8785 14.1625 29.0209 13.9091 29.2743C13.6556 29.5277 13.5132 29.8714 13.5132 30.2298V38.3379Z" fill="#625BCC"/>
<path d="M84.0944 97.7973H70.7565C70.3981 97.7973 70.0544 97.655 69.801 97.4015C69.5476 97.1481 69.4052 96.8044 69.4052 96.446V67.4325C69.3608 66.3515 69.5354 65.2728 69.9185 64.261C70.3015 63.2493 70.8851 62.3254 71.6343 61.5449C72.3834 60.7644 73.2825 60.1433 74.2777 59.7191C75.2729 59.2949 76.3436 59.0762 77.4255 59.0762C78.5073 59.0762 79.578 59.2949 80.5732 59.7191C81.5684 60.1433 82.4676 60.7644 83.2167 61.5449C83.9658 62.3254 84.5494 63.2493 84.9325 64.261C85.3155 65.2728 85.4901 66.3515 85.4457 67.4325V96.446C85.4457 96.8044 85.3034 97.1481 85.0499 97.4015C84.7965 97.655 84.4528 97.7973 84.0944 97.7973ZM72.1079 95.0946H82.743V67.4325C82.7794 66.7116 82.6688 65.9909 82.418 65.3141C82.1671 64.6373 81.7813 64.0186 81.284 63.4955C80.7866 62.9724 80.1881 62.5559 79.5248 62.2714C78.8615 61.9868 78.1472 61.84 77.4255 61.84C76.7037 61.84 75.9894 61.9868 75.3261 62.2714C74.6628 62.5559 74.0643 62.9724 73.567 63.4955C73.0696 64.0186 72.6838 64.6373 72.433 65.3141C72.1821 65.9909 72.0715 66.7116 72.1079 67.4325V95.0946Z" fill="#D4AF37"/>
<path d="M56.6754 97.7972H43.324C42.9656 97.7972 42.6219 97.6548 42.3685 97.4014C42.115 97.1479 41.9727 96.8042 41.9727 96.4458V67.4323C41.9727 66.3782 42.1803 65.3344 42.5837 64.3605C42.9871 63.3866 43.5783 62.5017 44.3237 61.7563C45.0691 61.011 45.954 60.4197 46.9279 60.0163C47.9018 59.6129 48.9456 59.4053 49.9997 59.4053C51.0538 59.4053 52.0976 59.6129 53.0715 60.0163C54.0454 60.4197 54.9303 61.011 55.6756 61.7563C56.421 62.5017 57.0123 63.3866 57.4157 64.3605C57.8191 65.3344 58.0267 66.3782 58.0267 67.4323V96.4458C58.0267 96.8042 57.8843 97.1479 57.6309 97.4014C57.3775 97.6548 57.0338 97.7972 56.6754 97.7972ZM44.6754 95.0945H55.324V67.4323C55.324 66.0202 54.7631 64.6659 53.7645 63.6674C52.766 62.6689 51.4118 62.108 49.9997 62.108C48.5876 62.108 47.2333 62.6689 46.2348 63.6674C45.2363 64.6659 44.6754 66.0202 44.6754 67.4323V95.0945Z" fill="#D4AF37"/>
<path d="M29.2428 97.7973H15.905C15.5466 97.7973 15.2029 97.655 14.9494 97.4015C14.696 97.1481 14.5536 96.8044 14.5536 96.446V67.4325C14.5093 66.3515 14.6838 65.2728 15.0669 64.261C15.4499 63.2493 16.0336 62.3254 16.7827 61.5449C17.5318 60.7644 18.431 60.1433 19.4262 59.7191C20.4214 59.2949 21.4921 59.0762 22.5739 59.0762C23.6557 59.0762 24.7264 59.2949 25.7216 59.7191C26.7168 60.1433 27.616 60.7644 28.3651 61.5449C29.1142 62.3254 29.6979 63.2493 30.0809 64.261C30.464 65.2728 30.6385 66.3515 30.5942 67.4325V96.446C30.5942 96.8044 30.4518 97.1481 30.1984 97.4015C29.9449 97.655 29.6012 97.7973 29.2428 97.7973ZM17.2563 95.0946H27.8915V67.4325C27.9278 66.7116 27.8172 65.9909 27.5664 65.3141C27.3156 64.6373 26.9298 64.0186 26.4324 63.4955C25.9351 62.9724 25.3365 62.5559 24.6732 62.2714C24.0099 61.9868 23.2957 61.84 22.5739 61.84C21.8521 61.84 21.1379 61.9868 20.4746 62.2714C19.8113 62.5559 19.2128 62.9724 18.7154 63.4955C18.218 64.0186 17.8322 64.6373 17.5814 65.3141C17.3306 65.9909 17.22 66.7116 17.2563 67.4325V95.0946Z" fill="#D4AF37"/>
<path d="M49.7703 28.8788C49.4119 28.8788 49.0682 28.7364 48.8147 28.483C48.5613 28.2296 48.4189 27.8859 48.4189 27.5275V4.55448C48.4189 4.19608 48.5613 3.85235 48.8147 3.59893C49.0682 3.3455 49.4119 3.20313 49.7703 3.20312C50.1287 3.20313 50.4724 3.3455 50.7258 3.59893C50.9793 3.85235 51.1216 4.19608 51.1216 4.55448V27.5275C51.1216 27.8859 50.9793 28.2296 50.7258 28.483C50.4724 28.7364 50.1287 28.8788 49.7703 28.8788Z" fill="#625BCC"/>
<path d="M65.0946 17.3923H49.7703C49.4119 17.3923 49.0682 17.2499 48.8147 16.9965C48.5613 16.7431 48.4189 16.3994 48.4189 16.041V4.55448C48.4189 4.19608 48.5613 3.85236 48.8147 3.59893C49.0682 3.3455 49.4119 3.20313 49.7703 3.20313H65.0946C65.3243 3.20267 65.5503 3.26074 65.7512 3.37187C65.9522 3.483 66.1216 3.64351 66.2433 3.83826C66.365 4.03301 66.4351 4.25556 66.4469 4.48491C66.4587 4.71426 66.4119 4.94284 66.3108 5.14907L63.8108 10.2977L66.3108 15.4464C66.4119 15.6526 66.4587 15.8812 66.4469 16.1105C66.4351 16.3399 66.365 16.5624 66.2433 16.7572C66.1216 16.9519 65.9522 17.1124 65.7512 17.2236C65.5503 17.3347 65.3243 17.3928 65.0946 17.3923ZM51.1216 14.6896H62.9325L61.0946 10.8923C61.0039 10.7072 60.9568 10.5038 60.9568 10.2977C60.9568 10.0916 61.0039 9.88822 61.0946 9.70313L62.9325 5.90583H51.1216V14.6896Z" fill="#625BCC"/>
</svg>
