<svg width="100" height="101" viewBox="0 0 100 101" fill="none" xmlns="http://www.w3.org/2000/svg">
<path d="M60.6992 58.3002V69.2496L77.5608 58.2002H89.8992V97.1002" stroke="#D4AF37" stroke-width="2.5" stroke-miterlimit="10" stroke-linecap="round" stroke-linejoin="round"/>
<path d="M7.89941 97.1002V69.6418L22.7468 58.2002H34.0994V69.2496L39.85 65.1644" stroke="#D4AF37" stroke-width="2.5" stroke-miterlimit="10" stroke-linecap="round" stroke-linejoin="round"/>
<path d="M65.9695 27.8486C66.1195 28.4488 66.2003 29.0764 66.2003 29.723C66.2003 33.9782 62.7507 37.4276 58.4957 37.4276C57.8947 37.4276 57.3105 37.3566 56.7491 37.2264C56.7491 37.2264 54.0321 38.2668 54.2041 41.0746" stroke="#625BCC" stroke-width="2.5" stroke-miterlimit="10" stroke-linecap="round" stroke-linejoin="round"/>
<path d="M46.4682 41.1777C44.4626 39.4013 44.7744 36.3957 44.7744 36.3957C44.7744 34.1909 45.961 32.2643 47.7296 31.2165C46.6956 29.9051 46.0768 28.2509 46.0768 26.4513C46.0768 22.1961 49.5264 18.7465 53.7816 18.7465C54.2386 18.7465 54.6856 18.7885 55.1208 18.8649C56.0306 15.6237 59.0054 13.2461 62.5374 13.2461" stroke="#625BCC" stroke-width="2.5" stroke-miterlimit="10" stroke-linecap="round" stroke-linejoin="round"/>
<path d="M54.9014 22.3146C54.9014 22.3146 54.6242 20.2112 55.1204 18.8652" stroke="#D4AF37" stroke-width="2.5" stroke-miterlimit="10" stroke-linecap="round" stroke-linejoin="round"/>
<path d="M50.6497 30.042C49.6439 30.2452 48.7517 30.5524 47.7295 31.217" stroke="#D4AF37" stroke-width="2.5" stroke-miterlimit="10" stroke-linecap="round" stroke-linejoin="round"/>
<path d="M72.7747 19.8828C72.7747 24.2824 69.208 27.849 64.8084 27.849C63.8848 27.849 62.9979 27.6918 62.1729 27.4026" stroke="#625BCC" stroke-width="2.5" stroke-miterlimit="10" stroke-linecap="round" stroke-linejoin="round"/>
<path d="M59.6396 7.73145C59.6396 7.73145 56.9366 10.796 58.2418 14.5564" stroke="#625BCC" stroke-width="2.5" stroke-miterlimit="10" stroke-linecap="round" stroke-linejoin="round"/>
<path d="M61.9541 4.35479L62.3143 3.85059" stroke="#625BCC" stroke-width="2.5" stroke-miterlimit="10" stroke-linecap="round" stroke-linejoin="round"/>
<path d="M58.762 97.1007L53.8208 45.7725H46.0068L41.0654 97.1007" stroke="#625BCC" stroke-width="2.5" stroke-miterlimit="10" stroke-linecap="round" stroke-linejoin="round"/>
<path d="M67.1992 73.1006V77.1006" stroke="#D4AF37" stroke-width="2.5" stroke-miterlimit="10" stroke-linecap="round" stroke-linejoin="round"/>
<path d="M72.5996 73.1006V77.1006" stroke="#D4AF37" stroke-width="2.5" stroke-miterlimit="10" stroke-linecap="round" stroke-linejoin="round"/>
<path d="M77.999 73.1006V77.1006" stroke="#D4AF37" stroke-width="2.5" stroke-miterlimit="10" stroke-linecap="round" stroke-linejoin="round"/>
<path d="M83.3994 73.1006V77.1006" stroke="#D4AF37" stroke-width="2.5" stroke-miterlimit="10" stroke-linecap="round" stroke-linejoin="round"/>
<path d="M2.7998 97.2002H96.3998" stroke="#625BCC" stroke-width="2.5" stroke-miterlimit="10" stroke-linecap="round" stroke-linejoin="round"/>
</svg>
