<svg width="100" height="101" viewBox="0 0 100 101" fill="none" xmlns="http://www.w3.org/2000/svg">
<path d="M58.4024 58.3527V48.1656C58.3961 46.9898 59.3696 45.3633 61.1381 45.3633C62.9067 45.3633 64.0198 46.7687 64.0266 48.0896L64.1522 73.0133C64.1625 75.002 62.5867 77.824 60.9621 78.7416C60.1127 79.2213 59.5897 80.123 59.5948 81.0984V96.0676" stroke="#625BCC" stroke-width="2.5" stroke-miterlimit="10" stroke-linecap="round" stroke-linejoin="round"/>
<path d="M52.1543 58.3863V42.7789C52.1469 41.367 53.4541 39.7158 55.2444 39.7158C57.0346 39.7158 58.395 41.34 58.4024 42.752V58.3594" stroke="#625BCC" stroke-width="2.5" stroke-miterlimit="10" stroke-linecap="round" stroke-linejoin="round"/>
<path d="M46.0674 58.4184V39.6334C46.06 38.2215 47.1016 36.5703 49.0444 36.5703C50.9871 36.5703 52.1471 38.1945 52.1545 39.6064V58.3914" stroke="#625BCC" stroke-width="2.5" stroke-miterlimit="10" stroke-linecap="round" stroke-linejoin="round"/>
<path d="M43.8168 96.0676V80.6385C43.8123 79.7627 43.4 78.9428 42.7004 78.4158C42.6994 78.4154 42.699 78.4168 42.6981 78.4164C42.6981 78.4164 43.0563 78.7846 43.1701 78.9014C43.1111 78.8408 42.969 78.6953 42.6943 78.4137C41.3334 77.483 33.0408 68.758 33.0408 68.758C32.7145 68.4637 32.4963 68.0936 32.384 67.6979L28.8469 60.3572C28.2406 59.082 28.7881 57.5426 30.0633 56.9365C31.3385 56.3303 32.8779 56.8777 33.4842 58.1529L36.3961 64.1785C36.534 64.4688 36.7858 64.6891 37.0916 64.7877L40.54 66.6521L40.4195 42.7223C40.4121 41.3104 41.3928 39.6592 43.1662 39.6592C44.9397 39.6592 46.0598 41.2834 46.0672 42.6953V58.4236" stroke="#625BCC" stroke-width="2.5" stroke-miterlimit="10" stroke-linecap="round" stroke-linejoin="round"/>
<path d="M58.0098 20.8395C59.3441 19.365 62.4117 18.3461 64.2297 18.7654C65.1803 18.9848 66.1748 18.6723 66.8293 17.949L80.2756 5.34082" stroke="#D4AF37" stroke-width="2.5" stroke-miterlimit="10" stroke-linecap="round" stroke-linejoin="round"/>
<path d="M96.898 10.8047L77.9662 29.7188C77.3785 30.368 77.1293 31.2514 77.29 32.1123C77.2904 32.1133 77.2918 32.1125 77.292 32.1135C77.292 32.1135 77.2762 31.6 77.2709 31.4371C77.2736 31.5217 77.2803 31.725 77.2928 32.1182C77.6688 33.7234 77.8994 45.7584 77.8994 45.7584C77.9416 46.1959 77.8527 46.6162 77.6686 46.984L75.3244 54.7879C74.9111 56.1381 73.4684 56.9045 72.1182 56.4912C70.768 56.0779 70.0016 54.6352 70.4148 53.285L72.3328 46.8734C72.427 46.5662 72.3898 46.2338 72.2307 45.9545L70.9443 42.2514L67.5293 45.8818" stroke="#D4AF37" stroke-width="2.5" stroke-miterlimit="10" stroke-linecap="round" stroke-linejoin="round"/>
<path d="M21.535 38.4211C20.2387 36.9129 19.6109 33.7422 20.2541 31.9908C20.5904 31.0752 20.4047 30.0494 19.7689 29.3096L3.94629 12.9229" stroke="#D4AF37" stroke-width="2.5" stroke-miterlimit="10" stroke-linecap="round" stroke-linejoin="round"/>
<path d="M18.7471 5.34082L32.0859 19.4383C32.6568 20.1025 33.502 20.46 34.3764 20.4082C34.3773 20.408 34.3768 20.4066 34.3777 20.4062C34.3777 20.4062 33.8662 20.3578 33.7039 20.3426C33.7881 20.3504 33.9906 20.3693 34.3822 20.4061C36.0219 20.2334 47.9914 21.5078 47.9914 21.5078C48.4307 21.5207 48.8367 21.6613 49.1785 21.89L56.6285 25.1906C57.9164 25.7693 58.4967 27.2965 57.918 28.5846C57.3393 29.8725 55.8119 30.4527 54.524 29.874L48.4023 27.1703C48.1092 27.0387 47.7748 27.0338 47.4779 27.1568L43.6432 27.9705L47.4902 32.7727" stroke="#D4AF37" stroke-width="2.5" stroke-miterlimit="10" stroke-linecap="round" stroke-linejoin="round"/>
<path d="M34.1109 75.7998C32.3992 76.8121 29.1674 76.8754 27.5557 75.9356C26.7129 75.4442 25.6705 75.4475 24.8309 75.9442L3.94629 90.1034" stroke="#D4AF37" stroke-width="2.5" stroke-miterlimit="10" stroke-linecap="round" stroke-linejoin="round"/>
<path d="M3.94629 69.8733L17.2678 62.0891C18.0215 61.6434 18.5215 60.8737 18.6236 60.0038C18.6236 60.0028 18.6221 60.003 18.6221 60.002C18.6221 60.002 18.485 60.4971 18.4416 60.6541C18.4641 60.5727 18.518 60.3766 18.6227 59.9973C18.7396 58.3528 22.0891 46.7909 22.0891 46.7909C22.1785 46.3606 22.3881 45.9856 22.673 45.6889L27.2264 38.9315C28.0215 37.7647 29.6268 37.4606 30.7936 38.2559C31.9604 39.051 32.2645 40.6563 31.4691 41.8231L27.7357 47.3772C27.5547 47.6428 27.4914 47.9711 27.5607 48.285L27.6908 52.203L35.6582 47.8165" stroke="#D4AF37" stroke-width="2.5" stroke-miterlimit="10" stroke-linecap="round" stroke-linejoin="round"/>
<path d="M80.3691 53.1416L81.5705 54.0279C83.1418 55.2471 84.3898 58.2287 84.1094 60.073C83.9627 61.0375 84.3494 62.0055 85.1201 62.6035L96.8988 71.6461" stroke="#D4AF37" stroke-width="2.5" stroke-miterlimit="10" stroke-linecap="round" stroke-linejoin="round"/>
<path d="M96.8982 91.4825L75.0207 74.7343C74.3287 74.1974 73.4291 74.0159 72.5828 74.2411C72.5818 74.2415 72.5826 74.2429 72.5818 74.2433C72.5818 74.2433 73.0926 74.1886 73.2547 74.171C73.1707 74.18 72.9684 74.2021 72.5773 74.2443C71.0051 74.7407 68.6787 74.823 68.6787 74.823" stroke="#D4AF37" stroke-width="2.5" stroke-miterlimit="10" stroke-linecap="round" stroke-linejoin="round"/>
</svg>
