<svg width="100" height="101" viewBox="0 0 100 101" fill="none" xmlns="http://www.w3.org/2000/svg">
<path d="M28.3813 47.3535C27.6503 46.3297 26.684 45.5188 25.5094 44.943C24.3514 44.3758 23.0161 44.0883 21.5401 44.0883C20.5995 44.0883 19.5989 44.2332 18.5221 44.5277L19.7186 41.8939H28.2772C29.5331 41.8939 30.6008 41.6 31.4501 41.0203C32.3424 40.4113 32.9368 39.5932 33.2165 38.5883C33.6071 37.1846 33.2251 36.2791 32.8358 35.7666C32.1833 34.9074 31.0782 34.3076 29.4577 34.3076H18.9653C17.5133 34.3076 16.3247 34.8512 15.4329 35.5633C14.6028 36.2254 13.9085 37.207 13.3157 38.551L8.99694 48.0703C8.38639 49.4174 8.36393 49.4982 8.33053 49.6191C8.04537 50.6434 8.23756 51.617 8.88541 52.4338C9.5192 53.2346 10.4198 53.658 11.4899 53.658C12.3669 53.658 13.412 53.2605 14.7796 52.4072C15.8495 51.7393 16.6571 51.2707 17.1805 51.0145C17.3921 50.9107 17.9278 50.7367 19.1389 50.7367C19.7839 50.7367 20.2919 50.8732 20.6913 51.1539C21.0368 51.3969 21.2653 51.7875 21.3895 52.348C21.5391 53.0242 21.4674 53.8979 21.1758 54.9449C20.8932 55.9607 20.4581 56.8764 19.8827 57.6664C19.3233 58.4344 18.6616 59.0426 17.9159 59.474C17.2053 59.8853 16.4794 60.0852 15.6965 60.0852C14.9299 60.0852 14.3333 59.8805 13.8714 59.4586C13.3823 59.0123 13.071 58.3721 12.9198 57.5014C12.6299 55.5437 11.429 54.4217 9.62233 54.4217C8.64869 54.4217 7.74537 54.7615 6.93717 55.4314C6.16119 56.0742 5.65651 56.7998 5.43698 57.5881C5.136 58.6693 5.16725 59.9103 5.53014 61.2764C5.91393 62.7215 6.86686 63.9916 8.36256 65.0516C9.84694 66.1033 11.8745 66.6146 14.5608 66.6146C16.8815 66.6146 19.104 66.0992 21.1661 65.0828C23.2128 64.074 24.9694 62.6904 26.3878 60.9705C27.804 59.2529 28.818 57.3186 29.402 55.2211C29.819 53.7225 29.9389 52.2871 29.7585 50.9553C29.5731 49.5861 29.1098 48.3746 28.3813 47.3535Z" stroke="#625BCC" stroke-width="2.5" stroke-miterlimit="10" stroke-linecap="round" stroke-linejoin="round"/>
<path d="M63.1574 40.0652C62.8727 38.966 62.2895 37.9234 61.4235 36.9666C60.5621 36.015 59.334 35.2291 57.7734 34.6305C56.258 34.0494 54.4152 33.7549 52.2961 33.7549C49.7746 33.7549 47.3779 34.1297 45.1725 34.8689C42.9596 35.6107 40.9291 36.6977 39.1377 38.099C37.3467 39.5 35.7908 41.2264 34.5135 43.2301C33.2469 45.2168 32.2682 47.4334 31.6045 49.8184C30.9211 52.2742 30.6711 54.5467 30.8617 56.5725C31.0592 58.6744 31.702 60.5027 32.7721 62.0064C33.8518 63.5236 35.3529 64.691 37.2338 65.4762C39.044 66.232 41.1836 66.615 43.5934 66.615C45.6164 66.615 47.5811 66.3807 49.433 65.9186C51.2619 65.4617 53.2531 64.7297 55.3531 63.742C56.1291 63.3756 56.8055 62.9836 57.3631 62.5768C57.9977 62.1139 58.5033 61.5764 58.8658 60.9789C59.2033 60.4223 59.4852 59.7285 59.7276 58.858L61.2817 53.274C61.65 51.9508 61.6656 50.9174 61.3293 50.1137C60.9541 49.2189 60.2602 48.6094 59.3213 48.3504C58.667 48.1703 57.8858 48.0826 56.9328 48.0826H50.236C49.1387 48.0826 48.1649 48.3834 47.342 48.9766C46.4983 49.5848 45.936 50.376 45.6709 51.3287C45.4932 51.967 45.226 53.5543 46.5754 54.502C47.2885 55.0039 48.3164 55.248 49.718 55.248H52.4891L51.826 57.6303C50.6871 58.1342 49.5832 58.5346 48.5367 58.8227C47.3623 59.1461 46.1404 59.3102 44.9053 59.3102C42.6029 59.3102 41.0942 58.6311 40.292 57.2342C39.4285 55.7307 39.4193 53.4287 40.2645 50.3924C40.6693 48.9377 41.2301 47.5971 41.9315 46.4078C42.6205 45.2389 43.4254 44.2432 44.3238 43.4484C45.2086 42.6656 46.1889 42.0607 47.2373 41.6512C48.2768 41.2453 49.4057 41.0395 50.5928 41.0395C51.9524 41.0395 52.6805 41.276 53.0516 41.4742C53.5658 41.749 53.9332 42.0705 54.1434 42.4295C54.441 42.9383 54.7854 43.7314 55.1668 44.7871C55.1801 44.824 55.1951 44.8604 55.2115 44.8959C55.4945 45.5082 55.9303 45.9918 56.507 46.3332C57.0547 46.6576 57.6725 46.8223 58.343 46.8223C59.411 46.8223 60.4262 46.4658 61.3608 45.7625C62.2988 45.0566 62.9205 44.1738 63.2086 43.1389C63.4643 42.2188 63.4473 41.1846 63.1574 40.0652Z" stroke="#625BCC" stroke-width="2.5" stroke-miterlimit="10" stroke-linecap="round" stroke-linejoin="round"/>
<path d="M16.0791 83.1994C24.3854 91.5062 35.8607 96.6443 48.5361 96.6443C73.8855 96.6443 94.4353 76.0945 94.4353 50.7451C94.4353 25.3957 73.8857 4.8457 48.5361 4.8457C38.4557 4.8457 29.1363 8.09785 21.5643 13.6066" stroke="#D4AF37" stroke-width="2.5" stroke-miterlimit="10" stroke-linecap="round" stroke-linejoin="round"/>
<path d="M22.7539 75.6318C29.2709 82.3818 38.4127 86.5811 48.5361 86.5811C68.3277 86.5811 84.3721 70.5367 84.3721 50.7451C84.3721 30.9535 68.3277 14.9092 48.5361 14.9092C40.8834 14.9092 33.7922 17.3096 27.9709 21.3961" stroke="#D4AF37" stroke-width="2.5" stroke-miterlimit="10" stroke-linecap="round" stroke-linejoin="round"/>
<path d="M33.907 28.6129C38.101 25.835 43.1293 24.2158 48.5367 24.2158C63.1883 24.2158 75.0658 36.0934 75.0658 50.7449C75.0658 65.3965 63.1883 77.274 48.5367 77.274C40.7727 77.274 33.7881 73.9383 28.9365 68.6225" stroke="#D4AF37" stroke-width="2.5" stroke-miterlimit="10" stroke-linecap="round" stroke-linejoin="round"/>
</svg>
