<svg width="71" height="70" viewBox="0 0 71 70" fill="none" xmlns="http://www.w3.org/2000/svg">
<path d="M35.5 39.375L41.5156 42.5469L40.4219 35.875L45.2344 31.0625L38.5625 30.0781L35.5 23.9531L32.4375 30.0781L25.7656 31.0625L30.5781 35.875L29.4844 42.5469L35.5 39.375Z" stroke="#625BCC" stroke-width="2.5" stroke-miterlimit="10" stroke-linecap="round" stroke-linejoin="round"/>
<path d="M56.2812 24.0625H66.125L59.5625 31.7188L66.125 39.375H55.1875" stroke="#D4AF37" stroke-width="2.5" stroke-miterlimit="10" stroke-linecap="round" stroke-linejoin="round"/>
<path d="M15.8125 39.375H4.875L11.4375 31.7188L4.875 24.0625H15.8125" stroke="#D4AF37" stroke-width="2.5" stroke-miterlimit="10" stroke-linecap="round" stroke-linejoin="round"/>
<path d="M56.5 18.1563C46.875 18.1563 35.5 10.6094 35.5 10.6094C35.5 10.6094 24.125 18.1563 14.5 18.1563C17.3437 25.4844 15.9219 41.0156 15.9219 41.0156C15.9219 50.8594 32.875 58.4062 35.5 59.2812C38.125 58.4062 55.0781 50.75 55.0781 41.0156C55.0781 41.0156 54.3125 32.5938 55.0781 25.2656L56.5 18.1563Z" stroke="#625BCC" stroke-width="2.5" stroke-miterlimit="10" stroke-linecap="round" stroke-linejoin="round"/>
</svg>
