<svg width="71" height="70" viewBox="0 0 71 70" fill="none" xmlns="http://www.w3.org/2000/svg">
<path d="M42.5074 51.7883L35.2319 56.3197L27.9564 51.7883C21.3658 47.5302 17.4346 40.535 17.4346 33.0658V15.3984L20.9671 16.9524C24.4955 18.3356 28.4787 18.3116 31.9876 16.8858L35.2321 15.3984L38.7843 16.9568C42.3142 18.3372 46.2977 18.3099 49.8055 16.8809L53.0294 15.3984V33.0656C53.0293 40.535 49.0981 47.5302 42.5074 51.7883Z" stroke="#625BCC" stroke-width="2.5" stroke-miterlimit="10" stroke-linecap="round" stroke-linejoin="round"/>
<path d="M27.665 35.1828L31.7233 39.2411L43.5601 27.4043" stroke="#625BCC" stroke-width="2.5" stroke-miterlimit="10" stroke-linecap="round" stroke-linejoin="round"/>
<path d="M20.5855 50.7654L18.1372 52.2904L12.2945 48.6514C7.0017 45.2318 3.84473 39.6143 3.84473 33.6159V19.4277L6.6815 20.6757C8.80666 21.5089 11.1373 21.7063 13.3586 21.2699" stroke="#D4AF37" stroke-width="2.5" stroke-miterlimit="10" stroke-linecap="round" stroke-linejoin="round"/>
<path d="M57.3278 21.131C59.7835 21.7507 62.4091 21.5787 64.7671 20.6181L67.3561 19.4277V33.6157C67.3561 39.6141 64.1991 45.2318 58.9063 48.6512L53.0637 52.2903L49.71 50.2015" stroke="#D4AF37" stroke-width="2.5" stroke-miterlimit="10" stroke-linecap="round" stroke-linejoin="round"/>
</svg>
