<svg width="70" height="70" viewBox="0 0 70 70" fill="none" xmlns="http://www.w3.org/2000/svg">
<g clip-path="url(#clip0_810_1623)">
<path d="M15.3014 53.8934C15.2524 53.8934 15.2034 53.8864 15.1544 53.8794C14.7554 53.7954 14.5034 53.4104 14.5874 53.0114L15.7214 47.5304C15.8194 47.0194 16.0574 46.4524 16.4284 45.8504C17.3734 44.2894 18.8994 43.0714 20.7264 42.4064C21.0624 42.2874 21.3284 42.2034 21.5454 42.1544L25.1434 41.1114C26.8094 40.6284 28.1534 39.3614 28.7344 37.7234L29.1544 36.5474C29.2874 36.1694 29.7074 35.9664 30.0924 36.0994C30.4774 36.2324 30.6734 36.6524 30.5404 37.0374L30.1204 38.2134C29.3854 40.2924 27.6774 41.9024 25.5564 42.5184L21.9094 43.5754C21.7624 43.6104 21.5664 43.6664 21.2304 43.7854C19.7184 44.3384 18.4584 45.3394 17.6814 46.6134C17.4014 47.0684 17.2264 47.4744 17.1564 47.8244L16.0224 53.3124C15.9454 53.6554 15.6444 53.8934 15.3014 53.8934Z" fill="#625BCC"/>
<path d="M34.9991 39.6204C34.2151 39.6204 33.4311 39.4594 32.6961 39.1444L31.7861 38.7454C28.5661 37.3454 26.1861 34.7204 25.2061 31.5004C23.8901 31.0804 22.9521 29.5754 22.9521 27.7624C22.9521 25.9424 23.9041 24.3954 25.2691 24.0034C25.6541 23.8914 26.0601 24.1154 26.1721 24.5074C26.2841 24.8994 26.0601 25.3054 25.6681 25.4104C24.9401 25.6204 24.4151 26.6074 24.4151 27.7554C24.4151 29.0154 25.0451 30.0654 25.8571 30.1354L26.3681 30.1844L26.5221 30.7584C27.3061 33.6564 29.4971 36.1414 32.3741 37.3944L33.2841 37.7934C34.3761 38.2694 35.6291 38.2694 36.7141 37.7934L37.6241 37.3944C40.5081 36.1414 42.6921 33.6634 43.4761 30.7584L43.6231 30.1914L44.1341 30.1424C44.9391 30.0654 45.5761 29.0224 45.5761 27.7624C45.5761 26.6074 45.0511 25.6204 44.3231 25.4174C43.9311 25.3054 43.7071 24.8994 43.8191 24.5144C43.9311 24.1224 44.3371 23.8984 44.7221 24.0104C46.0871 24.4024 47.0391 25.9424 47.0391 27.7694C47.0391 29.5824 46.1011 31.0874 44.7851 31.5074C43.7981 34.7274 41.4181 37.3524 38.2051 38.7524L37.2951 39.1514C36.5671 39.4664 35.7831 39.6204 34.9991 39.6204Z" fill="#625BCC"/>
<path d="M54.6971 53.8931C54.3541 53.8931 54.0531 53.6551 53.9831 53.3051L52.8491 47.8241C52.7791 47.4671 52.6041 47.0611 52.3241 46.6061C51.5471 45.3321 50.2871 44.3241 48.7751 43.7781C48.4391 43.6591 48.2431 43.6031 48.1451 43.5821L43.7701 42.3151C42.0831 41.8251 40.6621 40.7191 39.7661 39.2071L38.8421 37.6321C38.6391 37.2821 38.7511 36.8341 39.1011 36.6311C39.4511 36.4281 39.8991 36.5401 40.1021 36.8901L41.0261 38.4581C41.7261 39.6481 42.8461 40.5161 44.1761 40.9011L48.5021 42.1611C48.6701 42.1961 48.9361 42.2801 49.2721 42.3991C51.0991 43.0641 52.6251 44.2891 53.5701 45.8431C53.9341 46.4451 54.1721 47.0121 54.2771 47.5301L55.4111 53.0041C55.4951 53.4031 55.2361 53.7881 54.8441 53.8721C54.7951 53.8861 54.7461 53.8931 54.6971 53.8931Z" fill="#625BCC"/>
<path d="M25.4655 25.4521C25.0735 25.4521 24.7515 25.1441 24.7375 24.7521C24.7375 24.6891 24.6675 23.1141 25.1085 21.1191C25.1925 20.7271 25.5845 20.4751 25.9835 20.5591C26.3755 20.6431 26.6275 21.0351 26.5435 21.4341C26.1515 23.2261 26.2075 24.6681 26.2075 24.6821C26.2215 25.0881 25.9135 25.4311 25.5075 25.4451C25.4865 25.4521 25.4795 25.4521 25.4655 25.4521Z" fill="#625BCC"/>
<path d="M44.3511 25.4379C44.3371 25.4379 44.3301 25.4379 44.3161 25.4379C43.9101 25.4169 43.6021 25.0739 43.6231 24.6679C43.6231 24.6539 43.6861 23.2189 43.3081 21.4339C43.2241 21.0349 43.4761 20.6499 43.8681 20.5659C44.2601 20.4819 44.6521 20.7339 44.7361 21.1329C45.1561 23.1139 45.0862 24.6819 45.0862 24.7449C45.0582 25.1299 44.7361 25.4379 44.3511 25.4379Z" fill="#625BCC"/>
<path d="M34.9783 22.0084C31.5693 22.0084 28.1673 21.1404 25.1293 19.3974L24.6113 19.0964V15.6104H45.3453V19.0964L44.8273 19.3974C41.7893 21.1334 38.3873 22.0084 34.9783 22.0084ZM26.0743 18.2494C31.5973 21.3084 38.3663 21.3014 43.8753 18.2494V17.0734H26.0743V18.2494Z" fill="#625BCC"/>
<path d="M44.6103 17.0734C44.4423 17.0734 44.2743 17.0174 44.1343 16.8984C43.8263 16.6324 43.7913 16.1704 44.0503 15.8624L47.0253 12.3764C47.2423 12.1174 47.3683 11.7954 47.3683 11.4524C47.3683 10.8714 47.0253 10.3534 46.5003 10.1294C44.7993 9.40838 41.0333 8.19737 34.9363 8.19737C28.8113 8.19737 25.0593 9.40838 23.3653 10.1294C22.8403 10.3534 22.4973 10.8644 22.4973 11.4384C22.4973 11.7814 22.6233 12.1174 22.8473 12.3764L25.8853 15.8554C26.1513 16.1634 26.1233 16.6254 25.8153 16.8914C25.5073 17.1574 25.0453 17.1224 24.7793 16.8214L21.7413 13.3424C21.2793 12.8174 21.0273 12.1384 21.0273 11.4454C21.0273 10.2834 21.7133 9.24038 22.7843 8.78538C24.5763 8.02238 28.5383 6.73438 34.9293 6.73438C41.2853 6.73438 45.2613 8.02238 47.0673 8.78538C48.1383 9.24038 48.8313 10.2834 48.8313 11.4454C48.8313 12.1454 48.5863 12.8104 48.1383 13.3284L45.1633 16.8144C45.0233 16.9824 44.8203 17.0734 44.6103 17.0734Z" fill="#625BCC"/>
<path d="M36.6657 12.635H33.2077C32.8017 12.635 32.4727 12.306 32.4727 11.9C32.4727 11.494 32.8017 11.165 33.2077 11.165H36.6657C37.0717 11.165 37.4007 11.494 37.4007 11.9C37.4007 12.306 37.0717 12.635 36.6657 12.635Z" fill="#625BCC"/>
<path d="M24.2827 63.126C24.1987 63.126 24.1147 63.112 24.0377 63.084C11.1647 58.471 2.5127 46.172 2.5127 32.487C2.5127 14.574 17.0867 0 34.9997 0C52.9127 0 67.4867 14.574 67.4867 32.487C67.4867 46.172 58.8347 58.464 45.9547 63.084C45.5767 63.224 45.1567 63.021 45.0167 62.643C44.8837 62.265 45.0797 61.845 45.4577 61.705C57.7567 57.302 66.0167 45.556 66.0167 32.494C66.0237 15.386 52.1077 1.463 34.9997 1.463C17.8917 1.463 3.9757 15.379 3.9757 32.487C3.9757 45.556 12.2357 57.295 24.5347 61.698C24.9127 61.831 25.1157 62.251 24.9757 62.636C24.8707 62.937 24.5837 63.126 24.2827 63.126Z" fill="#D4AF37"/>
<path d="M34.9508 44.6181C34.2438 44.6181 33.5438 44.4641 32.8858 44.1631L27.0408 41.4611C26.6768 41.2931 26.5158 40.8521 26.6838 40.4881C26.8518 40.1241 27.2928 39.9631 27.6568 40.1311L33.5018 42.8331C34.4538 43.2741 35.5318 43.2601 36.4698 42.8051L41.9228 40.1451C42.2868 39.9701 42.7278 40.1171 42.9028 40.4811C43.0778 40.8451 42.9308 41.2861 42.5668 41.4611L37.1138 44.1211C36.4278 44.4501 35.6858 44.6181 34.9508 44.6181Z" fill="#625BCC"/>
<path d="M35 70.0004C34.993 70.0004 34.986 70.0004 34.979 70.0004C34.587 69.9864 25.333 69.4894 25.333 51.3244V50.7433L34.839 48.5453C35.231 48.4543 35.63 48.6993 35.721 49.0913C35.812 49.4833 35.567 49.8824 35.175 49.9734L26.81 51.9054C26.999 68.0894 34.951 68.5304 35.035 68.5304C35.441 68.5444 35.756 68.8804 35.742 69.2864C35.721 69.6854 35.392 70.0004 35 70.0004Z" fill="#D4AF37"/>
<path d="M35.0001 70.0004C34.6081 70.0004 34.2791 69.6854 34.2651 69.2934C34.2511 68.8874 34.5731 68.5514 34.9721 68.5374C35.3011 68.5234 43.0151 67.9844 43.1971 51.9124L34.8321 49.9804C34.4401 49.8894 34.1951 49.4974 34.2861 49.0984C34.3771 48.7064 34.7691 48.4544 35.1681 48.5524L44.6741 50.7504V51.3314C44.6741 69.4964 35.4201 69.9934 35.0281 70.0074C35.0141 70.0004 35.0071 70.0004 35.0001 70.0004Z" fill="#D4AF37"/>
<path d="M34.3281 62.1812C34.1461 62.1812 33.9781 62.1182 33.8381 61.9922L30.8001 59.2832C30.4991 59.0172 30.4711 58.5482 30.7441 58.2472C31.0101 57.9462 31.4721 57.9182 31.7801 58.1912L34.2511 60.3962L38.1501 55.6222C38.4091 55.3072 38.8711 55.2652 39.1791 55.5172C39.4941 55.7762 39.5361 56.2382 39.2841 56.5462L34.8951 61.9082C34.7691 62.0622 34.5871 62.1602 34.3841 62.1742C34.3631 62.1812 34.3491 62.1812 34.3281 62.1812Z" fill="#D4AF37"/>
</g>
<defs>
<clipPath id="clip0_810_1623">
<rect width="70" height="70" fill="white"/>
</clipPath>
</defs>
</svg>
