<svg width="70" height="70" viewBox="0 0 70 70" fill="none" xmlns="http://www.w3.org/2000/svg">
<path d="M18.4233 29.101V23.6172H4.11719V29.101H7.39934V40.8311H4.11719V46.3149H18.4233V40.8311H15.1411V29.101H18.4233Z" fill="#625BCC"/>
<path d="M34.211 32.3268C33.3268 32.0695 28.777 30.7666 27.9892 30.5092C27.2015 30.2519 26.5584 29.882 26.5584 29.4155C26.5584 28.949 27.2818 28.4504 28.7449 28.4504C33.3589 28.4504 35.5755 31.2974 35.5755 31.2974C35.5755 31.2974 35.8253 31.6303 35.909 31.7497H40.3607V23.9824H35.5817V25.3955C35.2167 25.1433 32.5219 23.3838 28.3429 23.3838C22.8285 23.3838 19.7578 26.2468 19.7578 30.5253C19.7578 34.8038 23.6324 36.5731 24.7095 37.0235C25.7867 37.4739 29.9989 38.6641 31.7995 39.2271C33.6001 39.79 34.2593 40.1922 34.2593 40.4817C34.2593 40.7712 33.4715 41.5272 31.2207 41.5272C27.3001 41.5272 25.2811 39.2141 24.9268 38.7662V38.7627C24.8141 38.6116 24.6819 38.4329 24.637 38.3656C24.585 38.2877 24.4645 38.1149 24.3809 37.9955H19.9293V46.2901H24.9268V44.558C25.5082 44.9452 28.4848 46.8029 32.0567 46.8029C36.0438 46.8029 41.1241 45.0658 41.1241 39.6453C41.1241 34.2248 35.0953 32.5842 34.211 32.3268Z" fill="#625BCC"/>
<path d="M53.8137 23.3076C47.1671 23.3076 41.7158 26.6324 41.7158 35.1195C41.7158 43.6066 47.6336 46.7855 53.8428 46.7855C60.052 46.7855 65.9114 43.6357 65.9114 35.2071C65.9114 26.7785 60.0522 23.3076 53.8137 23.3076ZM53.8721 41.1275C51.5982 41.1275 50.1406 40.6025 50.1406 35.0904C50.1406 29.5782 51.2193 28.9949 53.9594 28.9949C55.621 28.9949 57.6326 29.1114 57.6326 34.9154C57.6326 40.7193 56.146 41.1275 53.8721 41.1275Z" fill="#625BCC"/>
<path d="M13.6502 21.1143C15.1443 18.907 16.9817 16.9503 19.088 15.3254C19.9397 15.9554 20.8451 16.5269 21.7968 17.0362C20.2022 18.8145 18.7736 20.7846 18.5369 21.1143H19.4937C20.068 20.3399 21.2559 18.7822 22.5085 17.4011C23.8776 18.0745 25.3326 18.6252 26.8508 19.0447C26.4467 19.9024 26.1412 20.6525 25.9619 21.1143H26.7932C26.9842 20.6387 27.264 19.9754 27.6132 19.2425C29.5499 19.7159 31.5792 19.9812 33.6552 20.0216V21.1144H34.4269V20.0253C36.4877 20.0103 38.5058 19.7753 40.4357 19.3338C40.7647 20.0301 41.0295 20.6587 41.2126 21.1143H42.0438C41.8715 20.6708 41.5831 19.9618 41.2023 19.1461C42.7476 18.7438 44.2304 18.2075 45.6269 17.5447C46.8315 18.8891 47.9577 20.3668 48.5121 21.1143H49.4688C49.2395 20.7948 47.8848 18.926 46.3454 17.189C47.4037 16.6418 48.4072 16.0191 49.3452 15.3254C51.4515 16.9503 53.2891 18.907 54.7831 21.1143H55.7113C51.147 14.0666 43.2173 9.39355 34.2165 9.39355C25.2157 9.39355 17.286 14.0666 12.7217 21.1143H13.6502ZM27.1951 18.3386C25.751 17.9484 24.3654 17.4367 23.0592 16.8109C23.2367 16.6263 23.414 16.4476 23.5893 16.2784C25.378 14.5527 28.32 12.6578 28.9648 12.2499C29.4882 12.5375 30.0592 12.7807 30.6667 12.9737C30.1949 13.5927 29.2686 14.8491 28.2599 16.4427C27.8672 17.0629 27.5096 17.7148 27.1951 18.3386ZM33.6552 19.2493C31.7008 19.2102 29.7898 18.9667 27.9632 18.5333C28.2488 17.9746 28.5676 17.3997 28.9119 16.8559C30.074 15.0201 31.1225 13.6417 31.4718 13.1932C32.1688 13.357 32.9013 13.4606 33.6552 13.4945V19.2493ZM34.4269 19.2531V13.5032C35.1707 13.4906 35.8984 13.4119 36.5949 13.2717C36.9941 13.7884 37.9932 15.1168 39.094 16.8559C39.4562 17.4281 39.7902 18.0347 40.0872 18.6208C38.267 19.0236 36.3671 19.2387 34.4269 19.2531ZM40.8608 18.438C40.5345 17.7843 40.1593 17.0959 39.7458 16.4427C38.7892 14.9313 37.9064 13.723 37.4154 13.0742C38.0615 12.8927 38.6714 12.6567 39.2314 12.3711C40.1367 12.9517 42.7661 14.6863 44.4164 16.2784C44.6354 16.4898 44.8574 16.7156 45.0791 16.9498C43.7456 17.5658 42.3322 18.0644 40.8608 18.438ZM48.699 14.8427C47.7937 15.4966 46.8264 16.0823 45.8079 16.5972C45.5232 16.2918 45.2362 15.9967 44.9521 15.7226C43.4085 14.2335 41.1103 12.6712 39.9843 11.9376C40.3668 11.6895 40.7166 11.4152 41.0285 11.1165C43.8157 11.9133 46.4034 13.1873 48.699 14.8427ZM34.2167 10.1656C36.2545 10.1656 38.2351 10.4143 40.1315 10.8799C38.6923 12.0494 36.5358 12.7355 34.2167 12.7355C31.8871 12.7355 29.7365 12.0516 28.2993 10.8805C30.1963 10.4146 32.1778 10.1656 34.2167 10.1656ZM27.4046 11.1165C27.6585 11.36 27.9364 11.5877 28.2375 11.7977C27.2173 12.4545 24.7046 14.13 23.0538 15.7225C22.8161 15.9518 22.5765 16.196 22.3378 16.4485C21.4247 15.9702 20.554 15.4345 19.7346 14.8427C22.0299 13.1873 24.6174 11.9134 27.4046 11.1165Z" fill="#D4AF37"/>
<path d="M54.7847 48.8868C53.3223 51.0477 51.5307 52.9681 49.4802 54.5724C48.5036 53.8377 47.4554 53.1809 46.3469 52.6073C47.6823 51.1002 48.8788 49.4941 49.3217 48.887H48.3607C47.7683 49.6783 46.7313 51.0208 45.6283 52.2519C44.2318 51.5888 42.7491 51.0521 41.2035 50.65C41.5303 49.9498 41.7884 49.3294 41.9641 48.887H41.1304C40.9537 49.3183 40.7187 49.8656 40.4364 50.463C38.5077 50.0222 36.4899 49.7873 34.4274 49.7724V48.887H33.6557V49.7759C31.578 49.8161 29.5488 50.0812 27.6133 50.554C27.3118 49.9213 27.0619 49.34 26.8763 48.887H26.0425C26.2266 49.3507 26.5013 50.0101 26.8506 50.7515C25.332 51.1711 23.8765 51.7211 22.5075 52.3948C21.3572 51.1262 20.2617 49.7091 19.6461 48.8868H18.685C19.1427 49.5141 20.4066 51.2104 21.7972 52.7609C20.7956 53.2975 19.8446 53.9021 18.954 54.5723C16.9033 52.9679 15.1117 51.0476 13.6495 48.8867H12.7227C17.2871 55.9345 25.2165 60.6075 34.2172 60.6075C43.2178 60.6075 51.1473 55.9346 55.7118 48.8867L54.7847 48.8868ZM40.8615 51.3585C42.3334 51.7319 43.7469 52.2304 45.0805 52.8466C44.8584 53.0811 44.6363 53.3073 44.4168 53.5191C42.7717 55.106 40.1507 56.8366 39.2385 57.4218C38.6785 57.1351 38.0678 56.8991 37.4197 56.7176C37.9116 56.0676 38.7921 54.8617 39.7462 53.3545C40.1599 52.7012 40.5351 52.0124 40.8615 51.3585ZM34.4272 50.5443C36.369 50.5587 38.2689 50.7732 40.0879 51.1755C39.7908 51.762 39.4568 52.3687 39.0942 52.9414C37.9949 54.6781 36.9974 56.0051 36.597 56.5233C35.9025 56.3848 35.1748 56.3067 34.4271 56.2944V50.5443H34.4272ZM33.6555 50.5482V56.3023C32.8988 56.3359 32.1655 56.4382 31.4695 56.6009C31.1177 56.1491 30.0726 54.7746 28.9122 52.9414C28.5676 52.3973 28.2487 51.822 27.9629 51.2627C29.7884 50.8299 31.6994 50.5872 33.6555 50.5482ZM27.195 51.4581C27.5096 52.0823 27.8676 52.7341 28.2602 53.3546C29.2682 54.947 30.1938 56.2026 30.666 56.8221C30.0576 57.0149 29.4872 57.2584 28.9641 57.5468C28.3168 57.1371 25.3774 55.2436 23.5898 53.5191C23.4142 53.3497 23.2369 53.1707 23.0591 52.9861C24.3651 52.36 25.7506 51.8482 27.195 51.4581ZM19.5951 55.0564C20.4552 54.4238 21.3722 53.8535 22.337 53.3479C22.5759 53.6006 22.8161 53.8453 23.054 54.0748C24.7044 55.6669 27.2164 57.342 28.237 57.9991C27.8734 58.2537 27.5419 58.5337 27.2474 58.8377C24.4639 58.0216 21.8819 56.7297 19.5951 55.0564ZM34.2171 59.8355C32.1125 59.8355 30.0686 59.5711 28.1159 59.0756C29.5418 57.822 31.8059 57.0619 34.2171 57.0619C36.6253 57.0619 38.8916 57.8225 40.3176 59.0757C38.3651 59.5712 36.3214 59.8355 34.2171 59.8355ZM41.1863 58.8377C40.8362 58.4767 40.4361 58.1476 39.9896 57.8564C41.1176 57.1215 43.4112 55.5617 44.9524 54.0747C45.2366 53.8005 45.5237 53.5053 45.8086 53.1996C46.8791 53.7413 47.8936 54.361 48.8389 55.0562C46.552 56.7298 43.9699 58.0217 41.1863 58.8377Z" fill="#D4AF37"/>
</svg>
