<svg width="80" height="80" viewBox="0 0 80 80" fill="none" xmlns="http://www.w3.org/2000/svg">
<path d="M78.7814 32.4045C78.0199 30.3968 76.4562 28.6044 74.553 27.312C69.0585 23.8081 60.6851 23.5585 55.0238 26.7262C51.9362 28.3072 49.9068 31.4359 49.2752 34.6579C48.1297 39.9514 48.4256 46.2496 52.4862 50.2174C57.221 54.3861 64.1122 55.307 70.2401 53.5946C70.5312 53.5384 71.4539 53.3051 72.0902 52.966L72.2695 52.8889C74.1727 52.0946 75.9877 50.8012 77.3428 49.0497C80.4703 44.4572 80.6846 37.5761 78.7814 32.4045ZM68.8044 44.2915C68.5882 45.2953 67.9159 46.3354 66.8557 46.7125C65.1677 47.4583 62.8842 47.2516 61.3205 46.3792C60.009 45.4582 59.8402 43.9162 59.6714 42.4572C59.5434 39.5809 59.3366 36.5351 60.1389 33.9055C60.7676 32.2769 62.502 31.8578 64.0705 31.7349C65.7177 31.7349 67.3213 31.9873 68.3388 33.3217C68.9723 34.2788 68.9334 35.5312 69.0585 36.6589C69.014 39.0352 69.2264 41.8695 68.8044 44.2915ZM18.7089 46.882C17.313 46.7963 15.7493 46.9192 14.3979 46.7525L14.4397 32.1064L14.525 31.9845L18.7089 31.9435C18.7525 29.5663 18.7942 27.0167 18.6653 24.85L2.73109 24.8052L0.107158 24.8509C0.0654332 27.0605 0.0654332 29.6444 0.107158 31.8997C1.54572 31.9445 2.89609 31.8997 4.29198 32.0302V46.2144L4.2512 46.7973L0.0654332 46.883C-0.0218111 49.1768 -0.0218111 51.4732 0.0654332 53.767H18.7079L18.7089 46.882ZM65.6305 56.8928C63.8572 59.4405 61.6163 61.9015 59.1697 63.8159C59.0806 63.9463 58.8274 63.8968 58.7468 63.7768C57.6866 63.1111 56.5458 62.5663 55.5292 61.9015C56.8834 60.2758 58.1949 58.6491 59.2096 56.848H57.8943C56.8436 58.3976 55.7417 60.0234 54.3477 61.3958C52.4862 60.6463 50.7963 59.9796 48.894 59.4748L48.6826 59.3157C48.9784 58.4729 49.5265 57.6814 49.6944 56.8461H48.5536L47.4128 59.1005C44.9216 58.5586 42.1725 58.2633 39.6358 58.0986C39.5078 57.7243 39.6757 57.1814 39.5078 56.8461H38.4087C38.3215 57.3481 38.5358 57.7262 38.2817 58.1424C35.6606 58.2633 33.1249 58.5586 30.6754 59.0643L29.5299 56.8461C29.1117 56.8461 28.6413 56.7661 28.3492 56.8909L29.4037 59.3529L29.2776 59.4748C27.383 60.0253 25.5202 60.681 23.6979 61.4387L23.53 61.3529C22.3437 60.0596 21.202 58.6471 20.2707 57.2281C20.0612 56.5147 19.2153 56.9319 18.7497 56.848C19.7605 58.6862 21.1176 60.311 22.4679 61.9825C21.3271 62.652 20.1901 63.3987 19.001 63.9463C16.4151 61.9684 14.161 59.5878 12.324 56.8947C11.8157 56.8128 11.481 56.85 10.9699 56.8947C14.0139 61.651 18.7497 65.8216 23.696 68.2836C23.696 68.2836 23.696 68.2465 23.7415 68.2465C23.7775 68.2465 23.8619 68.3236 23.7775 68.3674C27.1193 69.9951 30.6726 71.1627 34.4316 71.6656C47.4109 73.3742 59.7985 67.8284 66.9808 56.8947C66.5319 56.8483 66.0795 56.8477 65.6305 56.8928ZM48.0064 60.6472L48.1307 60.5634C49.9533 60.9805 51.683 61.5653 53.2903 62.3558C51.9362 63.8959 50.2027 65.234 48.5982 66.3597C47.6271 66.9417 46.6513 67.5741 45.6357 68.0712L43.8216 67.2788L43.9458 66.9902C45.4707 64.9473 46.8239 62.8587 48.0064 60.6472ZM39.6757 59.3948C42.0872 59.4405 44.4977 59.69 46.7348 60.23L46.7793 60.3567C45.5978 62.6073 44.1146 64.7816 42.5111 66.8217C41.7885 66.9074 41.1152 66.6188 40.3973 66.574L39.6747 66.4883C39.5922 64.0264 39.5476 61.8568 39.6757 59.3948ZM31.5203 60.1453C33.7185 59.7281 36.0001 59.3948 38.3661 59.3948L38.4097 66.4531C37.5202 66.655 36.5482 66.655 35.7023 66.8693C33.9688 64.8197 32.5331 62.6073 31.3089 60.311L31.5203 60.1453ZM24.7106 62.4006C26.3635 61.6053 28.0942 61.0177 29.8675 60.5624L30.0391 60.6063C31.2615 62.9016 32.7854 65.0692 34.3064 67.2388C33.7194 67.575 32.9968 67.776 32.407 68.115C29.5482 66.6967 26.9469 64.8062 24.7116 62.5225V62.4006H24.7106ZM30.1662 69.5341C26.6148 68.6132 23.3148 67.0283 20.2717 64.8626V64.733C21.2864 64.113 22.3048 63.4435 23.4001 62.9797C25.8116 65.3645 28.3037 67.1588 31.0092 68.8655C30.7987 69.116 30.4611 69.3675 30.1662 69.5341ZM45.8481 70.0732C41.3684 71.0389 36.3775 71.0761 31.8987 69.9932C31.8134 69.7856 32.1102 69.7408 32.2363 69.6189C36.1679 67.0712 42.2948 67.0712 46.1459 69.8218C46.271 70.0732 45.9335 69.9932 45.8481 70.0732ZM49.9078 68.9093L47.9211 69.5332C47.5816 69.3665 47.2876 69.116 46.9889 68.8646L47.0743 68.737C49.7807 67.1579 52.2311 65.2331 54.5572 62.9387C55.699 63.3968 56.799 64.0263 57.8165 64.7321C55.4467 66.6188 52.6976 67.8646 49.9078 68.9093ZM12.2415 21.6356C13.2872 20.1823 14.431 18.8028 15.6649 17.5069C16.7601 16.464 17.7786 15.4631 18.964 14.7087C20.064 15.4173 21.2882 16.0078 22.3446 16.6726C21.0351 18.2917 19.6818 19.926 18.7098 21.6737C19.0038 21.8042 19.5557 21.7632 19.9796 21.6737C21.0351 20.1327 22.173 18.5898 23.531 17.2117C25.3441 17.8812 27.1222 18.5879 28.9846 19.0908L29.1487 19.2565L28.0961 21.6737C28.5626 21.7632 28.8585 21.7194 29.3203 21.6737C29.6996 20.9689 29.9936 20.1784 30.4165 19.4651C32.8717 20.0098 35.451 20.3003 38.0721 20.3813C38.4078 20.6775 38.1555 21.3004 38.2826 21.6737H39.4234C39.5476 21.2642 39.3807 20.7994 39.5476 20.428C42.0018 20.2984 44.5793 20.0479 46.9548 19.4632L47.1605 19.507L48.3023 21.6718C48.6835 21.6718 49.1899 21.7613 49.4858 21.5861L48.4265 19.1727L48.5147 19.0889C50.4559 18.5879 52.2766 17.8374 54.1362 17.0879C55.4505 18.4641 56.6729 20.0908 57.7757 21.6708C58.2385 21.6708 58.7041 21.7166 59.0427 21.5851C58.5206 20.6537 57.9116 19.7741 57.2238 18.9584C56.6655 18.1594 56.0426 17.4079 55.3614 16.7117V16.4955L58.321 14.7878L58.7477 14.6211C61.3216 16.5777 63.5739 18.9276 65.4228 21.5851C65.9301 21.5851 66.354 21.7604 66.7779 21.5499C61.1071 13.0458 51.7664 7.57425 41.668 6.78661L41.6235 6.86757L41.5372 6.78661C40.3973 6.66375 38.9967 6.61518 37.7724 6.73804C37.3087 6.70185 36.7606 6.73804 36.2096 6.78661C26.0658 7.57425 16.7241 12.7925 10.8874 21.6756C11.3103 21.6356 11.8176 21.8051 12.2415 21.6356ZM29.7878 17.9698L29.619 18.006C27.8836 17.5517 26.1909 17.004 24.5845 16.2974L24.6661 16.0469C26.9913 13.8363 29.4426 11.9991 32.1481 10.5839C32.7854 10.8343 33.4188 11.041 34.0523 11.3372L33.9281 11.6629C32.3188 13.6706 31.0538 15.8354 29.7878 17.9698ZM38.1973 19.0927C37.0166 19.2593 35.9593 19.0555 34.7711 18.9632C33.635 18.7955 32.1946 18.6746 31.0538 18.2936C32.2799 16.0097 33.7194 13.7944 35.451 11.7553L38.1574 12.1258C38.2826 14.2916 38.1973 16.7964 38.1973 19.0927ZM39.5069 19.1374C39.4234 16.9193 39.467 14.4611 39.5069 12.1658C40.3556 12.0439 41.2811 11.9144 42.1289 11.7915C43.777 13.8744 45.3872 16.0097 46.4873 18.2936C44.2015 18.849 41.8586 19.1323 39.5069 19.1374ZM52.9963 16.2126C51.3444 16.9183 49.6517 17.5869 47.8367 17.9698C46.5271 15.7583 45.0904 13.5478 43.4793 11.4115C44.072 11.0848 44.7946 10.8343 45.4271 10.502C48.18 11.8772 50.8399 13.8363 53.0779 16.0821L52.9963 16.2126ZM47.5816 9.07906C51.1329 9.99908 54.4728 11.582 57.5169 13.7516L57.4325 13.9182L54.5184 15.5431H54.3031C52.0661 13.2982 49.4459 11.3372 46.7793 9.78956C46.8637 9.49717 47.2886 9.28668 47.5816 9.07906ZM45.8927 8.66V8.74857C42.2123 11.4115 36.2533 11.6629 32.3662 9.20097C32.1481 9.0343 31.7309 8.95334 31.6853 8.66095C36.1689 7.62283 41.4499 7.53901 45.8927 8.66ZM20.1038 13.8363C22.7695 11.8772 25.7272 10.4172 28.8566 9.41526C28.9846 9.28478 29.0662 9.16192 29.2331 9.16192V9.24763C29.5706 9.32954 29.8257 8.95144 30.1207 9.19906C30.3757 9.41526 30.6745 9.58003 30.8831 9.78765C28.2639 11.4115 25.6836 13.3344 23.3157 15.6659C22.174 15.2564 21.1213 14.6268 20.1029 13.9182L20.1038 13.8363ZM38.2409 47.2078C34.2675 48.2945 29.9528 47.4659 27.0795 44.4572C26.7428 44.0401 26.5295 43.5429 26.19 43.1277L20.485 43.1677C20.395 46.5458 20.3551 50.4269 20.485 53.7661L26.8234 53.7251L26.9078 51.7212C27.6295 52.0546 28.3492 52.4708 29.0662 52.8451C33.4624 54.6832 39.1219 55.1004 43.4774 52.8451C46.6504 51.0974 48.3421 47.7192 47.8756 44.082C47.4128 40.54 44.0293 37.3256 40.6078 36.4522L30.3748 33.4874L29.6181 33.1102C29.2795 32.8207 29.0671 32.4473 29.1496 31.9845C29.9528 30.6111 31.8153 31.0283 33.2102 31.0654C36.1689 31.4835 39.2119 32.4845 40.9464 35.1979C42.8041 35.1979 44.9596 35.2341 46.987 35.1541C47.0733 31.734 46.9538 28.732 46.9036 25.2681C45.0013 25.2243 42.6751 25.2243 40.7757 25.3119C40.6903 25.8081 40.8572 26.5148 40.6458 27.0177L38.7027 25.9738C34.0504 24.0138 27.5394 23.809 23.3138 26.8548C20.5647 28.8539 19.7217 32.4454 20.4405 35.6151C20.9876 38.6142 23.8619 40.8276 26.611 41.8676C30.3729 43.201 34.3026 44.1667 38.1138 45.4582C38.4912 45.6277 38.9976 46.0058 38.9161 46.4639C38.918 46.8344 38.5349 47.0487 38.2409 47.2078Z" fill="#105BAB"/>
</svg>
