<svg width="81" height="80" viewBox="0 0 81 80" fill="none" xmlns="http://www.w3.org/2000/svg">
<path d="M40.5998 21.4771L46.4238 34.5359L60.6469 36.0408L50.0247 45.6163L52.9885 59.6051L40.5998 52.4653L28.2101 59.6051L31.173 45.6163L20.5527 36.0408L34.7758 34.5359L40.5998 21.4771Z" stroke="#625BCC" stroke-width="2.5" stroke-miterlimit="10" stroke-linecap="round" stroke-linejoin="round"/>
<path d="M26.9604 30.2204L20.9387 29.5823L16.8427 20.3945L12.743 29.5823L2.7373 30.6421L10.2102 37.379L8.1246 47.2209L16.8427 42.1969L23.5815 46.0811" stroke="#D4AF37" stroke-width="2.5" stroke-miterlimit="10" stroke-linecap="round" stroke-linejoin="round"/>
<path d="M54.2393 30.2204L60.2618 29.5823L64.3578 20.3945L68.4576 29.5823L78.4623 30.6421L70.9894 37.379L73.075 47.2209L64.3578 42.1969L57.619 46.0811" stroke="#D4AF37" stroke-width="2.5" stroke-miterlimit="10" stroke-linecap="round" stroke-linejoin="round"/>
</svg>
