<svg width="81" height="80" viewBox="0 0 81 80" fill="none" xmlns="http://www.w3.org/2000/svg">
<path d="M44.5922 53.8858C43.3786 54.2202 42.0992 54.3994 40.7805 54.3994C34.8953 54.3994 29.8225 50.8499 27.5908 45.7808" stroke="#625BCC" stroke-width="2.5" stroke-miterlimit="10"/>
<path d="M36.3193 26.306C37.7248 25.8482 39.2236 25.5996 40.7808 25.5996C47.2317 25.5996 52.7066 29.8646 54.5316 35.7233" stroke="#625BCC" stroke-width="2.5" stroke-miterlimit="10"/>
<path d="M8.5957 46.9124L8.80498 47.7778C9.19519 49.3816 9.70878 50.969 10.3366 52.4951L10.6756 53.3194C10.8767 53.8083 11.3757 54.1063 11.902 54.0532L19.0274 53.3203C19.7283 54.4617 20.5151 55.5456 21.3769 56.5563L18.4827 63.1087C18.2689 63.5948 18.3996 64.1587 18.8017 64.5005L19.4825 65.0762C20.7189 66.1253 22.0705 67.1059 23.4989 67.9896L24.2583 68.4593C24.7079 68.738 25.2873 68.6859 25.6821 68.3323L31.0081 63.5656C32.25 64.0801 33.5358 64.4968 34.8472 64.8075L36.4656 71.8305C36.5844 72.3405 37.0222 72.7151 37.5449 72.7517L38.424 72.8138C39.1999 72.8705 39.9922 72.8988 40.7781 72.8988C41.6052 72.8988 42.4395 72.8678 43.2574 72.8056L44.1493 72.7389C44.6757 72.7005 45.1153 72.3194 45.2268 71.8013L46.7337 64.8048C48.0341 64.4932 49.3108 64.0792 50.5473 63.5674L55.8796 68.3396C56.2744 68.6923 56.852 68.7435 57.3025 68.4657L58.0628 67.996C59.4656 67.1287 60.8172 66.1472 62.0774 65.078L62.7555 64.5005C63.1585 64.1596 63.2873 63.5939 63.0753 63.1105L60.1821 56.56C61.0466 55.5465 61.8334 54.4627 62.5334 53.3222L69.6597 54.0532C70.1861 54.1081 70.685 53.8092 70.887 53.3194L71.2233 52.4951C71.8484 50.9781 72.3619 49.3907 72.7522 47.7824L72.9614 46.916C73.0885 46.4015 72.8591 45.8678 72.4031 45.6019L66.2071 42.0031C66.3113 40.6689 66.3113 39.3347 66.2071 37.9995L72.4049 34.3998C72.8618 34.1339 73.093 33.6002 72.9642 33.0866L72.7549 32.2194C72.3619 30.6119 71.8465 29.0273 71.2233 27.5084L70.8842 26.6841C70.6832 26.1943 70.1842 25.8973 69.6569 25.9503L62.5179 26.6823C61.8069 25.5409 61.0128 24.4433 60.1766 23.4527L63.0744 16.8921C63.2864 16.4096 63.1585 15.8449 62.7546 15.5022L62.0765 14.9255C60.8208 13.8581 59.4692 12.8748 58.0601 12.0048L57.3016 11.5379C56.852 11.2591 56.2735 11.3112 55.8787 11.6649L50.5482 16.4343C49.3163 15.9244 48.0378 15.5104 46.7356 15.1988L45.2259 8.20136C45.1144 7.6832 44.6748 7.30121 44.1484 7.26191L43.2592 7.1952C42.4395 7.13215 41.6052 7.10107 40.7781 7.10107C39.9492 7.10107 39.1167 7.13215 38.3006 7.19246L37.4115 7.25917C36.8823 7.29755 36.4446 7.67955 36.3322 8.19679L34.8234 15.1942C33.5221 15.5058 32.2445 15.9198 31.0108 16.4316L25.6757 11.6576C25.2818 11.3066 24.7015 11.2555 24.251 11.5333L23.4925 12.003C22.0961 12.8666 20.7482 13.8499 19.4825 14.9255L18.8035 15.5013C18.4005 15.8439 18.2707 16.4096 18.4855 16.8931L21.3751 23.4408" stroke="#D4AF37" stroke-width="2.5" stroke-miterlimit="10"/>
<path d="M12.4679 31.1902C12.828 29.1505 14.7763 27.4918 16.8133 27.4937C18.8549 27.4927 20.2183 29.1505 19.8592 31.1902C19.6792 32.2092 19.1025 33.1322 18.3148 33.8011L10.8952 40.1076L10.6768 41.3477H19.1948" stroke="#625BCC" stroke-width="2.5" stroke-miterlimit="10"/>
<path d="M32.2726 36.9886H22.7676L23.0289 35.5082L29.4579 27.4937H31.1979L28.5459 42.5239" stroke="#625BCC" stroke-width="2.5" stroke-miterlimit="10"/>
<path d="M50.4312 55.6551L57.6553 42.099L57.7905 40.5811H49.3008" stroke="#625BCC" stroke-width="2.5" stroke-miterlimit="10"/>
<path d="M40.7971 42.7856C42.336 42.7856 43.5834 41.5381 43.5834 39.9992C43.5834 38.4604 42.336 37.2129 40.7971 37.2129C39.2582 37.2129 38.0107 38.4604 38.0107 39.9992C38.0107 41.5381 39.2582 42.7856 40.7971 42.7856Z" stroke="#625BCC" stroke-width="2.5" stroke-miterlimit="10"/>
<path d="M42.2285 37.6212L52.2252 21.021" stroke="#625BCC" stroke-width="2.5" stroke-miterlimit="10"/>
<path d="M38.8556 41.9932L33.7051 47.278" stroke="#625BCC" stroke-width="2.5" stroke-miterlimit="10"/>
</svg>
