<svg width="80" height="80" viewBox="0 0 80 80" fill="none" xmlns="http://www.w3.org/2000/svg">
<path d="M22.4307 32.1473C22.4307 29.5473 20.3229 27.4395 17.7229 27.4395H7.74102C5.14102 27.4395 3.0332 29.5473 3.0332 32.1473V71.5545C3.0332 74.1545 5.14102 76.2623 7.74102 76.2623H72.2588C74.8588 76.2623 76.9666 74.1545 76.9666 71.5545V41.5629C76.9666 38.9629 74.8588 36.8551 72.2588 36.8551H27.1385C24.5385 36.8551 22.4307 34.7474 22.4307 32.1473Z" stroke="#D4AF37" stroke-width="2.5" stroke-miterlimit="10" stroke-linecap="round" stroke-linejoin="round"/>
<path d="M63.6632 22.9787C65.3595 22.9787 66.7346 21.6036 66.7346 19.9073C66.7346 18.2111 65.3595 16.8359 63.6632 16.8359C61.9669 16.8359 60.5918 18.2111 60.5918 19.9073C60.5918 21.6036 61.9669 22.9787 63.6632 22.9787Z" stroke="#625BCC" stroke-width="2.5" stroke-miterlimit="10" stroke-linecap="round" stroke-linejoin="round"/>
<path d="M62.3814 26.9609L62.3369 27.203" stroke="#625BCC" stroke-width="2.5" stroke-miterlimit="10" stroke-linecap="round" stroke-linejoin="round"/>
<path d="M61.8085 30.0679L61.2559 33.0626" stroke="#625BCC" stroke-width="2.5" stroke-miterlimit="10" stroke-linecap="round" stroke-linejoin="round"/>
<path d="M65.2422 25.9102L67.1309 26.782C67.803 27.0922 68.2281 27.7705 68.2144 28.5105L68.283 33.0625" stroke="#625BCC" stroke-width="2.5" stroke-miterlimit="10" stroke-linecap="round" stroke-linejoin="round"/>
<path d="M60.2761 24.9941L58.2006 25.1345C57.4621 25.1843 56.8229 25.6662 56.5715 26.3623L54.0342 33.0629" stroke="#625BCC" stroke-width="2.5" stroke-miterlimit="10" stroke-linecap="round" stroke-linejoin="round"/>
<path d="M50.166 33.0627L54.3804 10.2266L75.2612 14.08L71.7581 33.0627" stroke="#625BCC" stroke-width="2.5" stroke-miterlimit="10" stroke-linecap="round" stroke-linejoin="round"/>
<path d="M47.1362 33.0625V8.22607H5.86523V23.5704" stroke="#625BCC" stroke-width="2.5" stroke-miterlimit="10" stroke-linecap="round" stroke-linejoin="round"/>
<path d="M12.3164 15.6895H25.6009" stroke="#625BCC" stroke-width="2.5" stroke-miterlimit="10" stroke-linecap="round" stroke-linejoin="round"/>
<path d="M12.3164 21.9282H40.6855" stroke="#625BCC" stroke-width="2.5" stroke-miterlimit="10" stroke-linecap="round" stroke-linejoin="round"/>
<path d="M26.501 28.1675H40.6855" stroke="#625BCC" stroke-width="2.5" stroke-miterlimit="10" stroke-linecap="round" stroke-linejoin="round"/>
<path d="M10.876 3.53662H51.5702V7.44865" stroke="#625BCC" stroke-width="2.5" stroke-miterlimit="10" stroke-linecap="round" stroke-linejoin="round"/>
</svg>
