<svg width="81" height="80" viewBox="0 0 81 80" fill="none" xmlns="http://www.w3.org/2000/svg">
<path d="M39.9321 57.2929C39.9278 57.2929 39.9234 57.2929 39.9192 57.2929C39.4723 57.2879 39.0671 57.0293 38.8746 56.626C38.8295 56.5316 34.3314 47.1397 31.2239 43.1661C29.7607 41.2953 28.9873 39.0377 28.9873 36.6372C28.9873 30.6022 33.8971 25.6924 39.9321 25.6924C45.9671 25.6924 50.877 30.6022 50.877 36.6372C50.877 39.1449 50.0229 41.6174 48.4718 43.5991C45.9523 46.8183 41.0275 56.5513 40.9781 56.6491C40.7787 57.0441 40.374 57.2929 39.9321 57.2929ZM39.9321 28.036C35.1895 28.036 31.3311 31.8944 31.3311 36.6371C31.3311 38.5091 31.9325 40.2675 33.07 41.7221C35.4268 44.7357 38.4084 50.4299 39.9564 53.5147C41.5856 50.3954 44.6914 44.6268 46.6262 42.1544C47.8561 40.583 48.5332 38.6236 48.5332 36.6371C48.5332 31.8946 44.6748 28.036 39.9321 28.036Z" fill="#625BCC"/>
<path d="M40.0069 41.1383C37.6796 41.1383 35.7861 39.2449 35.7861 36.9176C35.7861 34.5902 37.6796 32.6968 40.0069 32.6968C42.3343 32.6968 44.2277 34.5902 44.2277 36.9176C44.2277 39.2449 42.3343 41.1383 40.0069 41.1383ZM40.0069 35.0405C38.9719 35.0405 38.1299 35.8826 38.1299 36.9176C38.1299 37.9526 38.9719 38.7946 40.0069 38.7946C41.0419 38.7946 41.8839 37.9526 41.8839 36.9176C41.8839 35.8826 41.0419 35.0405 40.0069 35.0405Z" fill="#625BCC"/>
<path d="M40.0244 66.3447C39.8296 66.3447 39.6346 66.2961 39.4585 66.1989L14.9937 52.7068C14.6171 52.4992 14.3846 52.102 14.3877 51.672C14.391 51.242 14.6293 50.8484 15.009 50.6462L26.8646 44.3353C27.4355 44.0315 28.1454 44.2476 28.4498 44.8192C28.7538 45.3904 28.5373 46.1001 27.966 46.4043L18.0194 51.699L40.0246 63.8345L62.0298 51.699L52.3954 46.5704C51.8241 46.2664 51.6076 45.5567 51.9116 44.9853C52.2155 44.4139 52.9252 44.1972 53.4968 44.5014L65.0402 50.6462C65.4198 50.8482 65.6582 51.242 65.6615 51.672C65.6646 52.102 65.4321 52.4992 65.0555 52.7068L40.5907 66.1989C40.4143 66.2961 40.2193 66.3447 40.0244 66.3447Z" fill="#D4AF37"/>
<path d="M40.0244 73.9797C39.8314 73.9797 39.6383 73.9321 39.4636 73.8368L14.9988 60.5011C14.6221 60.2958 14.3877 59.9011 14.3877 59.4722V51.6807C14.3877 51.0335 14.9124 50.5088 15.5596 50.5088C16.2068 50.5088 16.7314 51.0335 16.7314 51.6807V58.7764L40.0244 71.4733L63.3174 58.7764V51.6807C63.3174 51.0335 63.8421 50.5088 64.4893 50.5088C65.1364 50.5088 65.6611 51.0335 65.6611 51.6807V59.4722C65.6611 59.9011 65.4268 60.2958 65.05 60.5011L40.5854 73.8368C40.4105 73.9321 40.2175 73.9797 40.0244 73.9797Z" fill="#D4AF37"/>
<path d="M18.5391 39.0646C18.3498 39.0646 18.1605 39.0189 17.9884 38.9273L2.60953 30.7407C2.22719 30.5371 1.98828 30.1393 1.98828 29.7062C1.98828 29.2731 2.22719 28.8753 2.60953 28.6717L17.9884 20.4851C18.3327 20.3018 18.7456 20.3018 19.0898 20.4851L28.255 25.364C28.8263 25.6682 29.0428 26.3778 28.7388 26.9492C28.4345 27.5204 27.7252 27.7371 27.1536 27.4329L18.5391 22.8471L5.65406 29.7061L18.5391 36.565L24.9598 33.147C25.5312 32.8431 26.2408 33.0595 26.545 33.6307C26.8491 34.2021 26.6325 34.9117 26.0613 35.2159L19.0897 38.927C18.9177 39.0189 18.7283 39.0646 18.5391 39.0646Z" fill="#D4AF37"/>
<path d="M18.5391 44.2526C18.3498 44.2526 18.1605 44.2068 17.9884 44.1153L2.60953 35.9287C2.22719 35.7251 1.98828 35.3273 1.98828 34.8942V29.7061C1.98828 29.0589 2.51297 28.5342 3.16016 28.5342C3.80734 28.5342 4.33203 29.0589 4.33203 29.7061V34.1904L18.5391 41.7531L24.9598 38.3351C25.5312 38.0312 26.2408 38.2475 26.545 38.8189C26.8491 39.3903 26.6325 40.1 26.0613 40.404L19.0897 44.1151C18.9177 44.2068 18.7283 44.2526 18.5391 44.2526Z" fill="#D4AF37"/>
<path d="M62.5678 39.0646C62.3786 39.0646 62.1892 39.0189 62.0172 38.9273L54.3025 34.8206C53.7313 34.5165 53.5147 33.8068 53.8188 33.2354C54.1228 32.6642 54.8324 32.4475 55.4039 32.7517L62.568 36.5653L75.453 29.7064L62.568 22.8475L52.9113 27.9876C52.34 28.2914 51.6303 28.0753 51.3261 27.5039C51.0221 26.9325 51.2386 26.2229 51.8099 25.9187L62.0171 20.4851C62.3613 20.3018 62.7742 20.3018 63.1185 20.4851L78.4974 28.6717C78.8797 28.8753 79.1186 29.2731 79.1186 29.7062C79.1186 30.1393 78.8797 30.5371 78.4974 30.7407L63.1185 38.9273C62.9464 39.0189 62.7571 39.0646 62.5678 39.0646Z" fill="#D4AF37"/>
<path d="M62.5675 44.253C62.3783 44.253 62.1889 44.2072 62.0169 44.1156L54.6136 40.1747C54.0423 39.8705 53.8258 39.1609 54.1298 38.5895C54.4339 38.0183 55.1434 37.8014 55.715 38.1058L62.5675 41.7536L76.7745 34.1909V29.7065C76.7745 29.0594 77.2992 28.5347 77.9464 28.5347C78.5936 28.5347 79.1183 29.0594 79.1183 29.7065V34.8947C79.1183 35.3278 78.8794 35.7256 78.497 35.9292L63.1181 44.1158C62.9461 44.2072 62.7567 44.253 62.5675 44.253Z" fill="#D4AF37"/>
<path d="M40.0243 21.7883C39.835 21.7883 39.6457 21.7425 39.4736 21.6509L26.8644 14.9387C26.4821 14.7351 26.2432 14.3373 26.2432 13.9042C26.2432 13.4711 26.4821 13.0733 26.8644 12.8697L39.4736 6.15748C39.8179 5.9742 40.2308 5.9742 40.575 6.15748L53.1843 12.8697C53.5666 13.0733 53.8055 13.4711 53.8055 13.9042C53.8055 14.3373 53.5666 14.7351 53.1843 14.9387L40.575 21.6509C40.4028 21.7425 40.2136 21.7883 40.0243 21.7883ZM29.9089 13.9042L40.0243 19.2887L50.1396 13.9042L40.0243 8.51967L29.9089 13.9042Z" fill="#D4AF37"/>
<path d="M47.5852 23.0793C47.166 23.0793 46.7605 22.8538 46.5497 22.4579C46.2457 21.8865 46.4622 21.177 47.0335 20.8727L51.4616 18.5155V13.9043C51.4616 13.2571 51.9863 12.7324 52.6335 12.7324C53.2807 12.7324 53.8054 13.2571 53.8054 13.9043V19.2193C53.8054 19.6524 53.5665 20.0502 53.1841 20.2538L48.1347 22.9418C47.9596 23.0349 47.771 23.0793 47.5852 23.0793Z" fill="#D4AF37"/>
<path d="M32.2791 22.9812C32.0933 22.9812 31.9049 22.937 31.7294 22.8435L26.8644 20.2537C26.4821 20.0501 26.2432 19.6523 26.2432 19.2191V13.9043C26.2432 13.2571 26.7679 12.7324 27.415 12.7324C28.0622 12.7324 28.5869 13.2571 28.5869 13.9043V18.5155L32.8308 20.7746C33.4021 21.0788 33.6186 21.7884 33.3146 22.3598C33.1038 22.7555 32.6983 22.9812 32.2791 22.9812Z" fill="#D4AF37"/>
</svg>
