<svg width="100" height="100" viewBox="0 0 100 100" fill="none" xmlns="http://www.w3.org/2000/svg">
<path d="M34.6875 34.6875C35.7812 40.9375 38.2812 46.5625 40.1562 49.0625C43.5938 53.2812 46.5625 55.4687 50.7812 55.4687C54.6875 55.4687 57.3438 53.5937 60.7813 48.4375C62.6563 45.625 64.6875 40.3125 65.625 34.6875" stroke="#625BCC" stroke-width="2.5" stroke-miterlimit="10" stroke-linecap="round" stroke-linejoin="round"/>
<path d="M46.5625 76.5625L38.4375 65.1563C38.4375 65.1563 22.8125 69.0625 18.2813 70.1563C13.75 71.4063 12.8125 81.5625 12.8125 88.75M87.6563 88.75C87.6563 81.5625 86.7188 71.4063 82.3438 70.1563C77.8125 68.9063 62.5 65 62.5 65V65.1563L54.2188 76.5625" stroke="#625BCC" stroke-width="2.5" stroke-miterlimit="10" stroke-linecap="round" stroke-linejoin="round"/>
<path d="M52.0312 67.8125L54.8437 88.75H45.9375L48.4375 67.8125L46.875 62.0312H53.5937L52.0312 67.8125Z" stroke="#D4AF37" stroke-width="2.5" stroke-miterlimit="10" stroke-linecap="round" stroke-linejoin="round"/>
<path d="M68.5938 26.5625C66.4063 30.7813 59.0625 33.75 50.3125 33.75C41.5625 33.75 34.2188 30.625 32.0312 26.5625" stroke="#625BCC" stroke-width="2.5" stroke-miterlimit="10" stroke-linecap="round" stroke-linejoin="round"/>
<path d="M71.875 15.625C59.6875 15.625 62.0313 6.875 49.375 6.875C36.7188 6.875 41.0938 15.625 28.125 15.625V26.5625H71.875V15.625Z" stroke="#D4AF37" stroke-width="2.5" stroke-miterlimit="10" stroke-linecap="round" stroke-linejoin="round"/>
<path d="M53.125 14.0625L50 12.8125L46.875 14.0625V17.6563C46.875 19.2188 49.5312 20.4687 50 20.625C50.4688 20.4687 53.125 19.2188 53.125 17.6563V14.0625Z" stroke="#D4AF37" stroke-width="2.5" stroke-miterlimit="10" stroke-linecap="round" stroke-linejoin="round"/>
<path d="M75.625 77.5C73.2813 77.5 70.625 75.625 70.625 75.625C70.625 75.625 67.8125 77.5 65.625 77.5C66.25 79.2187 65.9375 82.9687 65.9375 82.9687C65.9375 85.3125 70 87.1875 70.625 87.3438C71.25 87.1875 75.3125 85.3125 75.3125 82.9687C75.3125 82.9687 75.1563 80.9375 75.3125 79.2187L75.625 77.5Z" stroke="#D4AF37" stroke-width="2.5" stroke-miterlimit="10" stroke-linecap="round" stroke-linejoin="round"/>
</svg>
