<svg width="101" height="100" viewBox="0 0 101 100" fill="none" xmlns="http://www.w3.org/2000/svg">
<path d="M29.8632 44.203C29.8632 44.203 11.007 50.6728 14.9966 69.5602C19.3204 90.0296 55.7206 83.3862 63.262 75.8448C70.8034 68.3034 45.9167 73.0796 55.2179 62.773C64.5191 52.4664 48.7168 37.1642 29.8632 44.203Z" stroke="#625BCC" stroke-width="2.5" stroke-miterlimit="10" stroke-linecap="round" stroke-linejoin="round"/>
<path d="M47.2021 60.1467C53.6633 56.8111 54.6351 47.9615 50.8675 45.4207" stroke="#625BCC" stroke-width="2.5" stroke-miterlimit="10" stroke-linecap="round" stroke-linejoin="round"/>
<path d="M39.707 61.8798C40.669 61.6532 41.7332 61.4808 42.9038 61.3712" stroke="#625BCC" stroke-width="2.5" stroke-miterlimit="10" stroke-linecap="round" stroke-linejoin="round"/>
<path d="M63.2621 75.8448C48.5399 83.207 35.8001 77.0666 33.2057 71.725C31.9873 69.2164 32.2015 66.6174 34.1773 64.6338" stroke="#625BCC" stroke-width="2.5" stroke-miterlimit="10" stroke-linecap="round" stroke-linejoin="round"/>
<path d="M90.861 7.07861L52.3398 45.6" stroke="#625BCC" stroke-width="2.5" stroke-miterlimit="10" stroke-linecap="round" stroke-linejoin="round"/>
<path d="M46.0088 42.9486L86.37 2.5874" stroke="#625BCC" stroke-width="2.5" stroke-miterlimit="10" stroke-linecap="round" stroke-linejoin="round"/>
<path d="M53.0801 36.5576L56.8383 40.3158" stroke="#625BCC" stroke-width="2.5" stroke-miterlimit="10" stroke-linecap="round" stroke-linejoin="round"/>
<path d="M57.4795 32.1576L61.2377 35.9158" stroke="#625BCC" stroke-width="2.5" stroke-miterlimit="10" stroke-linecap="round" stroke-linejoin="round"/>
<path d="M12.2422 76.5735H8.09776C5.62376 76.5735 3.61816 78.5791 3.61816 81.0531C3.61816 83.5271 5.62376 85.5327 8.09776 85.5327H11.2232C13.6972 85.5327 15.7028 87.5383 15.7028 90.0123C15.7028 92.4863 17.7084 94.4919 20.1824 94.4919H88.621C91.095 94.4919 93.1006 92.4863 93.1006 90.0123C93.1006 87.5383 91.095 85.5327 88.621 85.5327H72.2714C69.7974 85.5327 67.7918 83.5271 67.7918 81.0531C67.7918 78.5791 69.7974 76.5735 72.2714 76.5735H74.355C76.829 76.5735 78.8346 74.5679 78.8346 72.0939C78.8346 69.6199 76.829 67.6143 74.355 67.6143H66.3028" stroke="#D4AF37" stroke-width="2.5" stroke-miterlimit="10" stroke-linecap="round" stroke-linejoin="round"/>
<path d="M90.8717 76.5735H89.6505C87.1765 76.5735 85.1709 74.5679 85.1709 72.0939C85.1709 69.6199 87.1765 67.6143 89.6505 67.6143H90.8717C93.3457 67.6143 95.3513 69.6199 95.3513 72.0939C95.3513 74.5679 93.3457 76.5735 90.8717 76.5735Z" stroke="#D4AF37" stroke-width="2.5" stroke-miterlimit="10" stroke-linecap="round" stroke-linejoin="round"/>
</svg>
