<svg width="101" height="100" viewBox="0 0 101 100" fill="none" xmlns="http://www.w3.org/2000/svg">
<g clip-path="url(#clip0_791_27362)">
<path d="M88.471 74.515C88.2753 74.5199 88.0805 74.4862 87.8979 74.4158C87.7152 74.3454 87.5481 74.2398 87.4063 74.1049C87.1198 73.8324 86.9534 73.4572 86.9435 73.062C86.9336 72.6668 87.0811 72.2838 87.3536 71.9973C87.6261 71.7109 88.0012 71.5444 88.3965 71.5345C90.1261 71.4869 91.8485 71.2925 93.5452 70.9533C94.1621 70.8307 94.7391 70.5578 95.2253 70.1588C95.7114 69.7597 96.0915 69.2469 96.332 68.6658C96.6426 67.039 96.8714 65.3977 97.0175 63.748C97.0846 63.137 96.2724 61.3562 93.4335 60.0224C89.082 57.9882 83.881 56.6247 77.5475 55.8721C74.4106 55.4995 71.445 55.3952 69.2841 55.3133C67.9206 55.2686 66.8402 55.2239 66.1174 55.1344C64.9252 54.9854 62.8165 53.7485 58.6215 51.1629C56.9665 50.0838 55.258 49.089 53.5025 48.1825C52.9958 47.9664 51.5429 47.6013 50.2538 47.2734L48.4059 46.804C48.21 46.7613 48.0248 46.6794 47.8613 46.5634C47.6978 46.4474 47.5594 46.2996 47.4544 46.1289C47.3493 45.9582 47.2798 45.768 47.25 45.5697C47.2202 45.3715 47.2306 45.1693 47.2808 44.9752C47.3309 44.7811 47.4197 44.5991 47.5419 44.4402C47.664 44.2812 47.8169 44.1485 47.9916 44.05C48.1662 43.9515 48.3588 43.8893 48.5581 43.867C48.7573 43.8447 48.959 43.8629 49.151 43.9204L50.9617 44.3824C52.2241 44.6581 53.4683 45.0115 54.6873 45.4404C56.5751 46.3933 58.4085 47.4505 60.1788 48.6072C62.3694 49.9782 65.7225 52.0273 66.4676 52.1838C67.0413 52.2583 68.0622 52.2881 69.3512 52.3402C71.5866 52.4222 74.567 52.5265 77.8605 52.914C84.5218 53.7113 90.0134 55.1493 94.6629 57.3251C98.627 59.1804 100.169 62.0491 99.9458 64.0759C99.7913 65.8883 99.5426 67.6914 99.2007 69.478C98.8112 70.5854 98.1409 71.5727 97.2554 72.3433C96.3698 73.1139 95.2994 73.6414 94.1488 73.8742C92.3025 74.2461 90.428 74.4604 88.5455 74.515H88.471Z" fill="#D4AF37"/>
<path d="M70.5043 74.1589H70.4596C67.9485 74.0843 65.1618 73.9726 62.4868 73.8757C58.2918 73.7118 54.3352 73.5628 52.2712 73.5628C50.0359 73.5628 44.291 73.6075 38.3897 73.6671C37.9944 73.6671 37.6154 73.5101 37.3359 73.2306C37.0564 72.9511 36.8994 72.5721 36.8994 72.1768C36.8994 71.7816 37.0564 71.4025 37.3359 71.1231C37.6154 70.8436 37.9944 70.6866 38.3897 70.6866C44.2984 70.627 50.021 70.5823 52.301 70.5823C54.4246 70.5823 58.411 70.7387 62.6358 70.8952C65.3034 70.9995 68.0827 71.1039 70.5863 71.1784C70.782 71.1813 70.9752 71.2228 71.1549 71.3004C71.3345 71.378 71.4972 71.4902 71.6335 71.6307C71.7698 71.7711 71.8771 71.937 71.9493 72.119C72.0214 72.3009 72.0571 72.4953 72.0541 72.691C72.0512 72.8867 72.0098 73.0799 71.9322 73.2596C71.8546 73.4392 71.7423 73.6019 71.6019 73.7382C71.4614 73.8745 71.2955 73.9818 71.1135 74.054C70.9316 74.1261 70.7373 74.1618 70.5416 74.1589H70.5043Z" fill="#D4AF37"/>
<path d="M79.5627 78.3896C77.6793 78.3896 75.8382 77.8311 74.2722 76.7848C72.7062 75.7384 71.4857 74.2512 70.7649 72.5111C70.0442 70.7711 69.8556 68.8564 70.223 67.0092C70.5905 65.162 71.4974 63.4652 72.8292 62.1335C74.1609 60.8017 75.8577 59.8948 77.7049 59.5273C79.5521 59.1599 81.4668 59.3485 83.2068 60.0692C84.9469 60.79 86.4341 62.0105 87.4804 63.5765C88.5268 65.1425 89.0853 66.9836 89.0853 68.867C89.0833 71.3919 88.0794 73.8129 86.294 75.5983C84.5086 77.3837 82.0876 78.3876 79.5627 78.3896ZM79.5627 62.3248C78.2688 62.3248 77.0039 62.7085 75.928 63.4274C74.8522 64.1463 74.0137 65.168 73.5185 66.3634C73.0234 67.5588 72.8938 68.8742 73.1462 70.1433C73.3987 71.4124 74.0217 72.5781 74.9367 73.493C75.8516 74.4079 77.0173 75.031 78.2864 75.2834C79.5554 75.5359 80.8708 75.4063 82.0662 74.9112C83.2617 74.416 84.2834 73.5775 85.0023 72.5016C85.7211 71.4258 86.1048 70.1609 86.1048 68.867C86.1078 68.0056 85.9408 67.1522 85.6134 66.3554C85.286 65.5587 84.8047 64.8344 84.197 64.2239C83.5893 63.6134 82.8672 63.1289 82.072 62.7979C81.2767 62.4669 80.424 62.296 79.5627 62.295V62.3248Z" fill="#D4AF37"/>
<path d="M31.627 96.0001H10.7637C10.3684 96.0001 9.98939 95.8431 9.70992 95.5636C9.43044 95.2841 9.27344 94.9051 9.27344 94.5098V39.371C9.27344 38.9757 9.43044 38.5967 9.70992 38.3172C9.98939 38.0377 10.3684 37.8807 10.7637 37.8807C11.1589 37.8807 11.538 38.0377 11.8174 38.3172C12.0969 38.5967 12.2539 38.9757 12.2539 39.371V93.0196H30.1368V39.371C30.1368 38.9757 30.2938 38.5967 30.5733 38.3172C30.8527 38.0377 31.2318 37.8807 31.627 37.8807C32.0223 37.8807 32.4013 38.0377 32.6808 38.3172C32.9603 38.5967 33.1173 38.9757 33.1173 39.371V94.5098C33.1173 94.9051 32.9603 95.2841 32.6808 95.5636C32.4013 95.8431 32.0223 96.0001 31.627 96.0001Z" fill="#625BCC"/>
<path d="M21.1953 96C20.8001 96 20.421 95.843 20.1416 95.5635C19.8621 95.2841 19.7051 94.905 19.7051 94.5098V58.8856C19.7051 58.4904 19.8621 58.1113 20.1416 57.8319C20.421 57.5524 20.8001 57.3954 21.1953 57.3954C21.5906 57.3954 21.9696 57.5524 22.2491 57.8319C22.5286 58.1113 22.6856 58.4904 22.6856 58.8856V94.5098C22.6856 94.905 22.5286 95.2841 22.2491 95.5635C21.9696 95.843 21.5906 96 21.1953 96Z" fill="#625BCC"/>
<path d="M38.9325 66.443C38.5373 66.443 38.1582 66.2859 37.8787 66.0065C37.5993 65.727 37.4423 65.3479 37.4423 64.9527V38.1731C37.4383 35.9525 36.5534 33.8242 34.9818 32.2554C33.4102 30.6865 31.2803 29.8054 29.0597 29.8054H11.3556C9.13629 29.8074 7.00831 30.6894 5.43831 32.258C3.86831 33.8266 2.98442 35.9538 2.98048 38.1731V64.9527C2.98048 65.3479 2.82347 65.727 2.544 66.0065C2.26452 66.2859 1.88548 66.443 1.49024 66.443C1.095 66.443 0.715955 66.2859 0.436481 66.0065C0.157007 65.727 0 65.3479 0 64.9527V38.1731C0.00394664 35.1633 1.20184 32.278 3.33079 30.1505C5.45975 28.0229 8.34582 26.8269 11.3556 26.825H29.0597C32.0708 26.8249 34.9587 28.0201 37.0893 30.1478C39.2199 32.2756 40.4188 35.162 40.4227 38.1731V64.9527C40.4227 65.3479 40.2657 65.727 39.9863 66.0065C39.7068 66.2859 39.3277 66.443 38.9325 66.443Z" fill="#625BCC"/>
<path d="M21.1954 31.8243C18.5427 31.8243 15.9496 31.0377 13.744 29.564C11.5384 28.0902 9.81928 25.9955 8.80415 23.5448C7.78901 21.094 7.52341 18.3973 8.04092 15.7956C8.55843 13.1939 9.83581 10.8041 11.7115 8.92833C13.5873 7.05261 15.9771 5.77523 18.5788 5.25772C21.1805 4.74021 23.8772 5.00581 26.328 6.02095C28.7787 7.03608 30.8734 8.75515 32.3472 10.9608C33.8209 13.1664 34.6075 15.7595 34.6075 18.4122C34.6075 21.9693 33.1944 25.3807 30.6792 27.896C28.1639 30.4112 24.7525 31.8243 21.1954 31.8243ZM21.1954 8.01774C19.1322 8.01774 17.1153 8.62955 15.3998 9.77579C13.6844 10.922 12.3473 12.5512 11.5578 14.4574C10.7682 16.3635 10.5616 18.461 10.9641 20.4845C11.3666 22.5081 12.3602 24.3668 13.8191 25.8257C15.2779 27.2846 17.1367 28.2781 19.1602 28.6806C21.1838 29.0832 23.2812 28.8766 25.1874 28.087C27.0935 27.2975 28.7227 25.9604 29.869 24.2449C31.0152 22.5295 31.627 20.5126 31.627 18.4494C31.627 15.6828 30.528 13.0294 28.5717 11.0731C26.6153 9.11679 23.962 8.01774 21.1954 8.01774Z" fill="#625BCC"/>
<path d="M21.1953 39.4312C20.9531 39.4311 20.7146 39.3721 20.5004 39.2591C20.2862 39.1462 20.1027 38.9827 19.9659 38.7829L13.5727 29.4689C13.3552 29.1427 13.2749 28.744 13.3494 28.359C13.4238 27.9741 13.647 27.634 13.9705 27.4124C14.2939 27.1909 14.6917 27.1058 15.0775 27.1755C15.4634 27.2452 15.8062 27.4642 16.0316 27.7849L21.1953 35.3181L26.359 27.7849C26.5845 27.4642 26.9273 27.2452 27.3131 27.1755C27.6989 27.1058 28.0967 27.1909 28.4202 27.4124C28.7437 27.634 28.9668 27.9741 29.0413 28.359C29.1157 28.744 29.0355 29.1427 28.8179 29.4689L22.4248 38.7978C22.2863 38.9949 22.1021 39.1554 21.888 39.2657C21.6738 39.376 21.4362 39.4328 21.1953 39.4312Z" fill="#625BCC"/>
<path d="M21.1945 14.2419C17.3944 14.2419 13.7954 13.2806 11.3216 11.6116C11.1592 11.502 11.0199 11.3615 10.9118 11.1981C10.8037 11.0347 10.7288 10.8515 10.6914 10.6592C10.6541 10.4668 10.655 10.269 10.6941 10.077C10.7331 9.88501 10.8097 9.70258 10.9193 9.54015C11.0289 9.37771 11.1694 9.23846 11.3328 9.13033C11.4962 9.0222 11.6793 8.94732 11.8716 8.90996C12.064 8.87259 12.2618 8.87348 12.4538 8.91257C12.6458 8.95166 12.8283 9.02819 12.9907 9.13778C14.9876 10.4864 17.983 11.2539 21.187 11.2539C24.391 11.2539 27.4013 10.5088 29.3833 9.13033C29.7114 8.909 30.1139 8.82705 30.5024 8.90251C30.8908 8.97796 31.2334 9.20465 31.4548 9.5327C31.6761 9.86074 31.758 10.2633 31.6826 10.6517C31.6071 11.0402 31.3804 11.3828 31.0524 11.6041C28.5935 13.2881 24.9871 14.2419 21.1945 14.2419Z" fill="#625BCC"/>
<path d="M68.3897 55.6039H46.7813C46.386 55.6039 46.007 55.4469 45.7275 55.1674C45.448 54.8879 45.291 54.5089 45.291 54.1137C45.291 53.7184 45.448 53.3394 45.7275 53.0599C46.007 52.7804 46.386 52.6234 46.7813 52.6234H68.3897C68.785 52.6234 69.164 52.7804 69.4435 53.0599C69.723 53.3394 69.88 53.7184 69.88 54.1137C69.88 54.5089 69.723 54.8879 69.4435 55.1674C69.164 55.4469 68.785 55.6039 68.3897 55.6039Z" fill="#D4AF37"/>
</g>
<defs>
<clipPath id="clip0_791_27362">
<rect width="100" height="100" fill="white" transform="translate(0.333008)"/>
</clipPath>
</defs>
</svg>
