<svg width="101" height="100" viewBox="0 0 101 100" fill="none" xmlns="http://www.w3.org/2000/svg">
<path d="M21.1558 67.1289C13.1284 70.4883 7.13234 77.7148 5.86281 86.3672L4.57375 94.7851C4.30031 96.6016 7.05422 97.0312 7.34719 95.2148L8.63625 86.7773C9.65188 79.7266 14.2222 73.7695 20.4722 70.5273C20.4722 71.2695 20.4722 95.957 20.4722 95C20.4722 95.7812 21.0972 96.4062 21.8784 96.4062H60.4527C61.2339 96.4062 61.8589 95.7812 61.8589 95C61.8589 86.543 61.8589 79.0039 61.8589 70.5273C68.1089 73.7695 72.6792 79.7461 73.6948 86.7969L74.9839 95.2148C75.2769 97.0312 78.0308 96.6016 77.7573 94.7851L76.4683 86.3672C75.2183 77.6953 69.2222 70.4687 61.1753 67.1094C58.773 65.8789 52.9331 65.0976 48.4214 64.4141V59.1016C51.9956 56.9141 54.398 53.3203 55.0425 49.1797C59.9839 48.7695 64.0855 44.2187 63.9878 39.2578C63.9878 39.2187 63.9878 36.9141 63.9878 36.9531L63.6753 34.2383C64.5347 34.3359 65.3745 33.75 65.3745 32.832C66.273 21.0547 59.105 10.0586 47.6011 6.95312C47.3081 5.09765 45.6284 3.43749 43.6753 3.55468H38.6558C36.6831 3.49609 35.0425 5.03906 34.73 6.93359C23.5386 9.90234 15.9605 20.8789 16.9566 32.9297C17.0152 33.8086 17.8355 34.3164 18.6753 34.2187L18.3628 36.9336C18.3433 36.875 18.3628 39.1992 18.3628 39.2383C18.2456 44.2383 22.3472 48.7891 27.2495 49.2187C27.8159 53.2617 30.2378 56.8555 33.8902 59.082V64.4531C29.5152 65.0976 23.48 65.918 21.1558 67.1289ZM59.0659 93.5937H23.3042V87.832H59.0659V93.5937ZM54.3003 68.2031C55.687 68.3984 57.7769 68.7891 59.0659 69.3164V85.0391H23.3042V69.3164C24.6128 68.7891 26.6636 68.3984 28.0698 68.2031C28.7144 83.8086 52.6011 85.8203 54.3003 68.2031ZM61.2144 39.2969C61.2925 42.6562 58.6753 45.7812 55.3941 46.3477C55.6089 43.2422 55.98 37.9102 56.2339 34.2773H60.8823L61.2144 37.2461V39.2969ZM21.1753 39.375C21.1167 38.6523 21.1363 37.9297 21.1753 37.2266L21.5073 34.2578H26.1558C26.3706 37.2851 26.8003 43.6133 26.9956 46.3281C25.6675 46.0937 21.5659 44.8047 21.1753 39.375ZM19.7105 31.4453C19.4175 20.9375 26.4097 11.6211 36.4097 9.47265C37.1128 9.3164 37.6011 8.65234 37.5034 7.92968C37.4253 7.20702 37.8355 6.36718 38.6558 6.42578H43.6948C44.4956 6.42578 44.9253 7.18749 44.8472 7.92968C44.7495 8.65234 45.2183 9.3164 45.9214 9.47265C56.1362 11.7969 63.0503 21.0742 62.5816 31.4648H19.7105V31.4453ZM29.9253 47.9297C29.9058 47.7734 29.9839 49.0234 29.0269 34.2578H53.3823L52.4448 47.9492C52.1323 51.7969 49.9253 55.1758 46.5464 57.0117C39.9839 61.0937 30.1011 55.6641 29.9253 47.9297ZM45.648 60.4687V65C43.2066 67.2656 39.1441 67.2656 36.7222 65V60.3906C39.6323 61.4453 42.7573 61.5039 45.648 60.4687ZM34.8472 67.1484C38.3042 70.332 44.0659 70.332 47.523 67.1484L51.4878 67.7539C51.0581 81.1914 31.312 81.1914 30.8628 67.7539L34.8472 67.1484Z" fill="#625BCC"/>
<path d="M81.0977 52.5977V67.1875C81.4883 77.4805 96.3906 77.4805 96.7617 67.1484V52.5977C96.7617 51.1719 96.2344 49.8047 95.2773 48.75C93.6953 47.0313 93.3828 44.4727 94.457 42.3828C94.7695 42.0898 94.5547 37.5781 94.6133 37.1289C94.6133 36.3477 93.9883 35.7227 93.207 35.7227H90.3359V5C90.3359 4.21875 89.7109 3.59375 88.9297 3.59375C88.1484 3.59375 87.5234 4.21875 87.5234 5V35.7422H84.6523C83.8711 35.7422 83.2461 36.3672 83.2461 37.1484C83.3047 37.5977 83.0898 42.1094 83.4023 42.4023C84.4961 44.4922 84.1641 47.0508 82.582 48.7695C81.625 49.8047 81.0977 51.1719 81.0977 52.5977ZM83.9102 52.5977C83.9102 51.875 84.1836 51.1914 84.6523 50.6641C86.9375 48.1641 87.4844 44.4922 86.0391 41.4258V38.5742H91.8008V41.4062C90.3555 44.4727 90.9023 48.1445 93.1875 50.6445C93.6758 51.1719 93.9297 51.875 93.9297 52.5781V67.0898C93.7344 73.7891 84.1055 73.8086 83.8906 67.1289V52.5977H83.9102Z" fill="#D4AF37"/>
<path d="M40.4935 17.1485L38.9896 19.1602C37.8958 20.625 40.1224 22.3243 41.2357 20.8399L43.3841 17.9883C43.7552 17.4805 43.7552 16.7969 43.3841 16.3086L41.8802 14.2969L43.3841 12.2852C44.4779 10.8008 42.2513 9.14067 41.138 10.6055L38.9896 13.4571C38.6185 13.9649 38.6185 14.6485 38.9896 15.1368L40.4935 17.1485Z" fill="#D4AF37"/>
<path d="M59.7305 25.8203C59.7305 25.0391 59.1055 24.4141 58.3242 24.4141H24.0469C23.2656 24.4141 22.6406 25.0391 22.6406 25.8203C22.6406 26.6016 23.2656 27.2266 24.0469 27.2266H58.3242C59.1055 27.2266 59.7305 26.6016 59.7305 25.8203Z" fill="#D4AF37"/>
<path d="M88.9297 70.0195C93.5781 69.9609 93.5781 63.1055 88.9297 63.0469C86.957 63.0469 85.4531 64.5313 85.4141 66.5625C85.4531 68.5352 86.957 70.0195 88.9297 70.0195ZM88.9297 65.8594C89.2422 65.8594 89.6133 65.9766 89.6328 66.5234C89.6133 67.0703 89.2422 67.1875 88.9297 67.1875C88.6172 67.1875 88.2266 67.0703 88.2266 66.543C88.2461 65.9766 88.6172 65.8594 88.9297 65.8594Z" fill="#625BCC"/>
</svg>
