<svg width="100" height="100" viewBox="0 0 100 100" fill="none" xmlns="http://www.w3.org/2000/svg">
<path d="M89.2981 92.6731C89.2981 85.1538 88.3173 74.5288 83.7404 73.2211C79 71.9134 62.9808 67.8269 62.9808 67.8269V67.9904C62.9808 67.9904 60.0385 79.5961 50.3942 79.5961C40.75 79.5961 37.8077 67.9904 37.8077 67.9904C37.8077 67.9904 21.4615 72.0769 16.7212 73.2211C11.9808 74.5288 11 85.1538 11 92.6731" stroke="#625BCC" stroke-width="2.5" stroke-miterlimit="10" stroke-linecap="round" stroke-linejoin="round"/>
<path d="M34.375 41.3462C35.6827 47.0674 37.9712 52.1347 39.7692 54.5866C43.3654 59 46.4712 61.2885 50.8846 61.2885C54.9712 61.2885 57.75 59.327 61.3462 53.9327C63.1442 51.3174 65.1058 46.4135 66.0865 41.1827" stroke="#625BCC" stroke-width="2.5" stroke-miterlimit="10" stroke-linecap="round" stroke-linejoin="round"/>
<path d="M22.1172 71.75V93" stroke="#625BCC" stroke-width="2.5" stroke-miterlimit="10" stroke-linecap="round" stroke-linejoin="round"/>
<path d="M79.3281 73.3846V91.3654" stroke="#625BCC" stroke-width="2.5" stroke-miterlimit="10" stroke-linecap="round" stroke-linejoin="round"/>
<path d="M31.9219 70.1154V86.4615H69.518V70.1154" stroke="#625BCC" stroke-width="2.5" stroke-miterlimit="10" stroke-linecap="round" stroke-linejoin="round"/>
<path d="M73.4432 25.9808H70.6644C68.049 13.2308 58.0778 11.5962 58.0778 11.5962V8H43.3663V10.9423C43.3663 10.9423 32.4144 12.9038 29.799 25.9808H28.0009C27.5105 29.25 27.1836 28.5962 27.1836 31.375C27.1836 35.625 37.3182 39.0577 50.2317 39.0577C63.1451 39.0577 73.9336 35.625 73.9336 31.375C73.9336 29.0865 73.7701 27.6154 73.4432 25.9808Z" stroke="#D4AF37" stroke-width="2.5" stroke-miterlimit="10" stroke-linecap="round" stroke-linejoin="round"/>
<path d="M64.1238 30.8846C60.3642 31.8654 55.9507 32.5193 50.0661 32.5193C44.8353 32.5193 39.9315 32.0289 36.1719 31.0481" stroke="#D4AF37" stroke-width="2.5" stroke-miterlimit="10" stroke-linecap="round" stroke-linejoin="round"/>
<path d="M43.3672 11.2693L45.0018 21.077" stroke="#D4AF37" stroke-width="2.5" stroke-miterlimit="10" stroke-linecap="round" stroke-linejoin="round"/>
<path d="M58.076 11.2693L56.4414 21.077" stroke="#D4AF37" stroke-width="2.5" stroke-miterlimit="10" stroke-linecap="round" stroke-linejoin="round"/>
<path d="M69.5201 91.3654H54.8086" stroke="#D4AF37" stroke-width="2.5" stroke-miterlimit="10" stroke-linecap="round" stroke-linejoin="round"/>
</svg>
