<svg width="100" height="100" viewBox="0 0 100 100" fill="none" xmlns="http://www.w3.org/2000/svg">
<path d="M44.7734 15.2562C47.0556 13.9692 47.0546 11.337 47.0546 11.337C47.0546 11.337 45.6507 11.4735 44.7734 10.5376C43.896 11.4735 42.4921 11.337 42.4921 11.337C42.4921 11.337 42.3751 13.9108 44.7734 15.2562Z" stroke="#D4AF37" stroke-width="2.5" stroke-miterlimit="10" stroke-linecap="round" stroke-linejoin="round"/>
<path d="M37.134 45.7188L44.607 50.5496L36.7432 53.802L37.134 45.7188Z" stroke="#625BCC" stroke-width="2.5" stroke-miterlimit="10" stroke-linecap="round" stroke-linejoin="round"/>
<path d="M44.4613 26.5395C41.6478 26.5395 33.4877 24.5921 29.9498 23.6747C29.2107 23.4831 29.0029 22.5329 29.5939 22.0495L32.2529 19.8749H56.6695L59.3285 22.0495C59.9195 22.5329 59.7119 23.4829 58.9726 23.6747C55.4349 24.5921 47.2746 26.5395 44.4613 26.5395Z" stroke="#625BCC" stroke-width="2.5" stroke-miterlimit="10" stroke-linecap="round" stroke-linejoin="round"/>
<path d="M32.2529 19.875L29.1203 15.4838C28.3769 14.4417 28.7492 12.9803 29.9015 12.4225C36.6465 9.15669 41.1052 4.47974 44.4613 4.47974C47.8174 4.47974 52.2761 9.15669 59.0211 12.4225C60.1732 12.9803 60.5457 14.4417 59.8023 15.4838L56.6697 19.875" stroke="#625BCC" stroke-width="2.5" stroke-miterlimit="10" stroke-linecap="round" stroke-linejoin="round"/>
<path d="M34.5107 25.1338V32.8918C34.5107 38.3451 39.0076 42.766 44.4609 42.766C49.9143 42.766 54.4111 38.3451 54.4111 32.8918V25.1338" stroke="#625BCC" stroke-width="2.5" stroke-miterlimit="10" stroke-linecap="round" stroke-linejoin="round"/>
<path d="M39.4023 57.552L44.6066 75.5122" stroke="#625BCC" stroke-width="2.5" stroke-miterlimit="10" stroke-linecap="round" stroke-linejoin="round"/>
<path d="M38.0023 40.7593L37.3115 45.7188L21.302 51.8677C19.8557 52.4231 18.6805 53.5169 18.0229 54.9196L7.50781 77.3483C7.10449 78.2085 6.89551 79.147 6.89551 80.097V81.5677C6.89551 83.9552 8.20918 86.1489 10.3139 87.2761L26.5844 95.9894" stroke="#625BCC" stroke-width="2.5" stroke-miterlimit="10" stroke-linecap="round" stroke-linejoin="round"/>
<path d="M26.1592 65.2217L26.5842 95.9893" stroke="#625BCC" stroke-width="2.5" stroke-miterlimit="10" stroke-linecap="round" stroke-linejoin="round"/>
<path d="M37.5201 68.2177H31.4395" stroke="#625BCC" stroke-width="2.5" stroke-miterlimit="10" stroke-linecap="round" stroke-linejoin="round"/>
<path d="M31.5562 48.2163L32.5699 51.886L23.448 55.4661L22.0107 51.6521" stroke="#625BCC" stroke-width="2.5" stroke-miterlimit="10" stroke-linecap="round" stroke-linejoin="round"/>
<path d="M44.8525 96.0144V51.9464C44.8525 49.3233 46.6904 47.1968 48.9576 47.1968H88.7271C90.9943 47.1968 92.8322 49.3231 92.8322 51.9464V96.0144" stroke="#D4AF37" stroke-width="2.5" stroke-miterlimit="10" stroke-linecap="round" stroke-linejoin="round"/>
<path d="M86.1428 58.2194H51.543V75.5123H86.1428V58.2194Z" stroke="#D4AF37" stroke-width="2.5" stroke-miterlimit="10" stroke-linecap="round" stroke-linejoin="round"/>
<path d="M26.1598 68.2177L19.2988 79.8682L26.3723 83.9591" stroke="#625BCC" stroke-width="2.5" stroke-miterlimit="10" stroke-linecap="round" stroke-linejoin="round"/>
</svg>
