<svg width="101" height="100" viewBox="0 0 101 100" fill="none" xmlns="http://www.w3.org/2000/svg">
<path d="M47.8371 66.4915H11.043V72.6489H47.8371V66.4915Z" stroke="#D4AF37" stroke-width="2.5" stroke-miterlimit="10" stroke-linecap="round" stroke-linejoin="round"/>
<path d="M33.167 72.9695V84.8925" stroke="#D4AF37" stroke-width="2.5" stroke-miterlimit="10" stroke-linecap="round" stroke-linejoin="round"/>
<path d="M25.7129 84.8925V72.9695" stroke="#D4AF37" stroke-width="2.5" stroke-miterlimit="10" stroke-linecap="round" stroke-linejoin="round"/>
<path d="M39.4229 48.1959L31.7867 55.8322L25.3252 49.3705L32.9613 41.7344" stroke="#D4AF37" stroke-width="2.5" stroke-miterlimit="10" stroke-linecap="round" stroke-linejoin="round"/>
<path d="M64.0723 13.0175L71.7084 5.38135L75.7764 9.44912L68.14 17.0853" stroke="#D4AF37" stroke-width="2.5" stroke-miterlimit="10" stroke-linecap="round" stroke-linejoin="round"/>
<path d="M78.6705 12.3436L68.8135 2.48657" stroke="#D4AF37" stroke-width="2.5" stroke-miterlimit="10" stroke-linecap="round" stroke-linejoin="round"/>
<path d="M57.1346 7.20862L27.7852 36.5581L44.5989 53.3719L73.9484 24.0224L57.1346 7.20862Z" stroke="#625BCC" stroke-width="2.5" stroke-miterlimit="10" stroke-linecap="round" stroke-linejoin="round"/>
<path d="M73.8268 74.5169V53.196C73.8268 47.4992 71.5637 42.0355 67.5354 38.007L63.7498 34.2214L56.202 41.7693L60.7674 46.3347C62.8834 48.4507 64.0723 51.3208 64.0723 54.3134V74.5167C64.0723 80.4167 59.2895 85.1996 53.3895 85.1996H11.043V96.8251H90.4004V85.1996H84.5096C78.6098 85.1996 73.8268 80.4167 73.8268 74.5169Z" stroke="#625BCC" stroke-width="2.5" stroke-miterlimit="10" stroke-linecap="round" stroke-linejoin="round"/>
</svg>
