<svg width="101" height="100" viewBox="0 0 101 100" fill="none" xmlns="http://www.w3.org/2000/svg">
<path d="M87.9883 88.75C87.9883 81.5625 87.0508 71.4063 82.6758 70.1563C78.1445 68.9063 62.832 65 62.832 65V65.1563L50.8008 77.8125L38.7695 65.1563C38.7695 65.1563 23.1445 69.0625 18.6133 70.1563C14.082 71.4063 13.1445 81.5625 13.1445 88.75" stroke="#625BCC" stroke-width="2.5" stroke-miterlimit="10" stroke-linecap="round" stroke-linejoin="round"/>
<path d="M34.707 34.6875C35.4883 42.0312 38.457 49.375 40.6445 52.1875C44.082 56.4063 47.0508 58.5937 51.2695 58.5937C55.1758 58.5937 57.832 56.7187 61.2695 51.5625C63.457 48.2812 65.957 41.5625 66.582 35" stroke="#625BCC" stroke-width="2.5" stroke-miterlimit="10" stroke-linecap="round" stroke-linejoin="round"/>
<path d="M70.957 89.0625C71.82 89.0625 72.5195 88.3629 72.5195 87.5C72.5195 86.6371 71.82 85.9375 70.957 85.9375C70.0941 85.9375 69.3945 86.6371 69.3945 87.5C69.3945 88.3629 70.0941 89.0625 70.957 89.0625Z" stroke="#625BCC" stroke-width="2.5" stroke-miterlimit="10" stroke-linecap="round" stroke-linejoin="round"/>
<path d="M31.2695 89.0625C32.1325 89.0625 32.832 88.3629 32.832 87.5C32.832 86.6371 32.1325 85.9375 31.2695 85.9375C30.4066 85.9375 29.707 86.6371 29.707 87.5C29.707 88.3629 30.4066 89.0625 31.2695 89.0625Z" stroke="#625BCC" stroke-width="2.5" stroke-miterlimit="10" stroke-linecap="round" stroke-linejoin="round"/>
<path d="M67.6758 30.7813C62.3633 31.25 56.582 31.5625 50.332 31.5625C44.3945 31.5625 38.7695 31.25 33.6133 30.9375H32.832C32.832 29.8437 32.832 28.75 32.9883 27.6563C34.5508 15 44.3945 13.5938 50.4883 13.5938C55.4883 13.5938 65.6445 15.3125 67.9883 25.9375C68.3008 27.5 68.457 29.0625 68.457 30.7813H67.6758Z" stroke="#D4AF37" stroke-width="2.5" stroke-miterlimit="10" stroke-linecap="round" stroke-linejoin="round"/>
<path d="M37.9883 31.4063L39.3945 37.1875C42.207 38.5937 45.957 39.5312 50.332 39.5312C54.3945 39.5312 58.1445 38.75 60.957 37.3437L62.9883 31.0938" stroke="#625BCC" stroke-width="2.5" stroke-miterlimit="10" stroke-linecap="round" stroke-linejoin="round"/>
<path d="M23.7695 68.75V89.0625" stroke="#625BCC" stroke-width="2.5" stroke-miterlimit="10" stroke-linecap="round" stroke-linejoin="round"/>
<path d="M78.457 70.3125V87.5" stroke="#625BCC" stroke-width="2.5" stroke-miterlimit="10" stroke-linecap="round" stroke-linejoin="round"/>
<path d="M33.1445 67.1875V82.8125H69.082V67.1875" stroke="#625BCC" stroke-width="2.5" stroke-miterlimit="10" stroke-linecap="round" stroke-linejoin="round"/>
<path d="M45.6445 26.5625H55.0195" stroke="#D4AF37" stroke-width="2.5" stroke-miterlimit="10" stroke-linecap="round" stroke-linejoin="round"/>
</svg>
