<svg width="101" height="100" viewBox="0 0 101 100" fill="none" xmlns="http://www.w3.org/2000/svg">
<path d="M74.1055 67.8125C68.6367 66.4063 63.168 65 63.168 65V65.1563L51.1367 77.8125L39.1055 65.1563C39.1055 65.1563 23.4805 69.0625 18.9492 70.1563C14.418 71.4063 13.4805 81.5625 13.4805 88.75M88.3242 88.75C88.3242 84.8438 88.0117 79.8438 87.0742 76.0938" stroke="#625BCC" stroke-width="2.5" stroke-miterlimit="10" stroke-linecap="round" stroke-linejoin="round"/>
<path d="M35.043 34.6875C35.8242 42.0312 38.793 49.375 40.9805 52.1875C44.418 56.4063 47.3867 58.5937 51.6055 58.5937C55.5117 58.5937 58.168 56.7187 61.6055 51.5625C63.793 48.2812 66.293 41.5625 66.918 35" stroke="#625BCC" stroke-width="2.5" stroke-miterlimit="10" stroke-linecap="round" stroke-linejoin="round"/>
<path d="M68.0117 30.7813C62.6992 31.25 56.918 31.5625 50.668 31.5625C44.7305 31.5625 39.1055 31.25 33.9492 30.9375H33.168C33.168 29.8437 33.168 28.75 33.3242 27.6563C34.8867 15 44.7305 13.5938 50.8242 13.5938C55.8242 13.5938 65.9805 15.3125 68.3242 25.9375C68.6367 27.5 68.793 29.0625 68.793 30.7813H68.0117Z" stroke="#D4AF37" stroke-width="2.5" stroke-miterlimit="10" stroke-linecap="round" stroke-linejoin="round"/>
<path d="M24.1055 68.75V89.0625" stroke="#625BCC" stroke-width="2.5" stroke-miterlimit="10" stroke-linecap="round" stroke-linejoin="round"/>
<path d="M78.793 82.8125V87.5" stroke="#625BCC" stroke-width="2.5" stroke-miterlimit="10" stroke-linecap="round" stroke-linejoin="round"/>
<path d="M69.418 71.875V67.1875" stroke="#625BCC" stroke-width="2.5" stroke-miterlimit="10" stroke-linecap="round" stroke-linejoin="round"/>
<path d="M33.4805 67.1875V82.8125H52.2305" stroke="#625BCC" stroke-width="2.5" stroke-miterlimit="10" stroke-linecap="round" stroke-linejoin="round"/>
<path d="M45.9805 26.5625H55.3555" stroke="#D4AF37" stroke-width="2.5" stroke-miterlimit="10" stroke-linecap="round" stroke-linejoin="round"/>
<path d="M67.0744 86.5625C65.5119 88.125 65.5119 90 65.5119 91.25C65.5119 92.6563 63.9494 94.375 61.7619 94.6875C59.5744 95 55.9806 94.375 58.3244 93.2813C60.6681 92.1875 61.6056 91.5625 61.4494 90.4688C61.1369 89.375 60.8244 88.125 60.0431 87.6563C59.2619 87.0313 58.9494 87.0313 58.4806 87.3438C57.8556 87.6563 57.5431 87.9688 56.2931 88.5938C55.0431 89.2188 54.7306 88.2813 55.5119 87.1875C56.2931 86.0938 57.8556 83.4375 60.0431 83.5938C62.0744 83.9063 63.4806 83.125 64.4181 82.1875C81.4494 67.1875 81.7619 66.7188 80.6681 67.8125C82.2306 66.25 82.3869 64.2188 82.3869 62.6563C82.3869 61.25 84.1056 59.2188 86.2931 58.9063C88.6369 58.5938 92.5431 59.2188 90.0431 60.4688C87.5431 61.7188 86.4494 62.3438 86.7619 63.5938C87.0744 64.6875 87.5431 66.0938 88.3244 66.7188C89.1056 67.3438 89.4181 67.3438 90.0431 67.0313C90.6681 66.7188 91.1369 66.4063 92.3869 65.625C93.6369 64.8438 93.9494 66.0938 93.1681 67.1875C92.3869 68.2813 90.5119 71.25 88.3244 70.9375C86.1369 70.625 84.5744 71.0938 83.4806 72.1875C83.4806 72.3438 67.0744 86.5625 67.0744 86.5625Z" stroke="#D4AF37" stroke-width="2.5" stroke-miterlimit="10" stroke-linecap="round" stroke-linejoin="round"/>
</svg>
