<svg width="100" height="100" viewBox="0 0 100 100" fill="none" xmlns="http://www.w3.org/2000/svg">
<path d="M67.7115 45.4444V38.9733C67.7115 32.5022 55.5782 29.2666 49.5115 29.2666C43.4449 29.2666 31.3115 32.5022 31.3115 38.9733V45.4444" stroke="#625BCC" stroke-width="2.5" stroke-miterlimit="10" stroke-linejoin="round"/>
<path d="M59.6221 45.4443V41.3999" stroke="#D4AF37" stroke-width="2.5" stroke-miterlimit="10" stroke-linejoin="round"/>
<path d="M39.4004 41.3999V45.4443" stroke="#D4AF37" stroke-width="2.5" stroke-miterlimit="10" stroke-linejoin="round"/>
<path d="M49.5108 23.2C45.0619 23.2 41.4219 19.3578 41.4219 15.1111V13.0889C41.4219 8.84222 45.0619 5 49.5108 5C53.9597 5 57.5997 8.84222 57.5997 13.0889V15.1111C57.5997 19.3578 53.9597 23.2 49.5108 23.2Z" stroke="#625BCC" stroke-width="2.5" stroke-miterlimit="10" stroke-linejoin="round"/>
<path d="M89.9553 65.6667H9.06641V96.0001H89.9553V65.6667Z" stroke="#D4AF37" stroke-width="2.5" stroke-miterlimit="10" stroke-linejoin="round"/>
<path d="M96.0222 47.4666H3V65.6666H96.0222V47.4666Z" stroke="#625BCC" stroke-width="2.5" stroke-miterlimit="10" stroke-linejoin="round"/>
</svg>
