<svg width="101" height="100" viewBox="0 0 101 100" fill="none" xmlns="http://www.w3.org/2000/svg">
<path d="M31.807 39.7586C30.5398 40.3643 29.0666 40.3643 27.7992 39.7586L23.1674 36.8899C20.8535 35.4708 20.9385 34.4395 20.8535 32.9543L20.8768 28.5852" stroke="#625BCC" stroke-width="2.5" stroke-miterlimit="10" stroke-linecap="round" stroke-linejoin="round"/>
<path d="M37.8078 8.42065C41.0809 10.4279 42.6004 13.5964 42.6004 17.7173V22.3052H12.5996" stroke="#625BCC" stroke-width="2.5" stroke-miterlimit="10" stroke-linecap="round" stroke-linejoin="round"/>
<path d="M18.0488 16.6728C18.0488 10.8702 22.6506 6.74365 27.2525 6.74365" stroke="#D4AF37" stroke-width="2.5" stroke-miterlimit="10" stroke-linecap="round" stroke-linejoin="round"/>
<path d="M24.2676 16.6727V15.4674C24.2676 9.16216 27.1102 5.06763 33.4154 5.06763" stroke="#D4AF37" stroke-width="2.5" stroke-miterlimit="10" stroke-linecap="round" stroke-linejoin="round"/>
<path d="M42.6006 27.6086V44.8284L52.9478 48.9167" stroke="#625BCC" stroke-width="2.5" stroke-miterlimit="10" stroke-linecap="round" stroke-linejoin="round"/>
<path d="M6.10547 90.4813L8.05859 58.2631C8.05859 54.8157 10.0861 51.6907 13.2346 50.2858L24.2676 45.7278L33.4154 55.9663L42.6006 44.8284" stroke="#625BCC" stroke-width="2.5" stroke-miterlimit="10" stroke-linecap="round" stroke-linejoin="round"/>
<path d="M33.415 55.9663V90.286" stroke="#625BCC" stroke-width="2.5" stroke-miterlimit="10" stroke-linecap="round" stroke-linejoin="round"/>
<path d="M16.5859 64.8398V90.4812" stroke="#625BCC" stroke-width="2.5" stroke-miterlimit="10" stroke-linecap="round" stroke-linejoin="round"/>
<path d="M71.9074 94.7599C84.2913 94.7599 94.3305 84.7208 94.3305 72.3369C94.3305 59.953 84.2913 49.9138 71.9074 49.9138C59.5235 49.9138 49.4844 59.953 49.4844 72.3369C49.4844 84.7208 59.5235 94.7599 71.9074 94.7599Z" stroke="#D4AF37" stroke-width="2.5" stroke-miterlimit="10" stroke-linecap="round" stroke-linejoin="round"/>
<path d="M65.707 63.6V57.5984" stroke="#D4AF37" stroke-width="2.5" stroke-miterlimit="10" stroke-linecap="round" stroke-linejoin="round"/>
<path d="M78.1045 57.5984V63.6" stroke="#D4AF37" stroke-width="2.5" stroke-miterlimit="10" stroke-linecap="round" stroke-linejoin="round"/>
<path d="M78.1043 63.6001H81.175V68.9806H62.6357V63.6001H70.1318" stroke="#D4AF37" stroke-width="2.5" stroke-miterlimit="10" stroke-linecap="round" stroke-linejoin="round"/>
<path d="M76.1629 84.6738C76.1629 87.0244 74.2572 88.93 71.9066 88.93C69.5561 88.93 67.6504 87.0244 67.6504 84.6738C67.6504 81.4402 71.9066 74.364 71.9066 74.364C71.9066 74.364 76.1629 81.44 76.1629 84.6738Z" stroke="#625BCC" stroke-width="2.5" stroke-miterlimit="10" stroke-linecap="round" stroke-linejoin="round"/>
<path d="M22.0049 67.655H27.4816" stroke="#625BCC" stroke-width="2.5" stroke-miterlimit="10" stroke-linecap="round" stroke-linejoin="round"/>
<path d="M39.0703 67.655H44.5469" stroke="#625BCC" stroke-width="2.5" stroke-miterlimit="10" stroke-linecap="round" stroke-linejoin="round"/>
<path d="M19.8477 48.9167L27.2521 59.4255L33.415 55.9664" stroke="#625BCC" stroke-width="2.5" stroke-miterlimit="10" stroke-linecap="round" stroke-linejoin="round"/>
<path d="M48.7502 48.1355L40.3691 59.4255L33.415 55.9664" stroke="#625BCC" stroke-width="2.5" stroke-miterlimit="10" stroke-linecap="round" stroke-linejoin="round"/>
</svg>
